<svg id="bebdbc02-5f56-4bd5-9ad9-bce5f07a2c3e" xmlns="http://www.w3.org/2000/svg" viewBox="0 0 783 783.89"><defs><style>.cls-1{fill:#515254;opacity:0;}.cls-2{fill:#3f3d56;}.cls-3{fill:#f2f2f2;}.cls-4{fill:#4c65ff;}.cls-5{fill:#ff6584;}.cls-6{fill:#ccc;}.cls-7{opacity:0.1;isolation:isolate;}.cls-8{fill:#fff;}.cls-9{fill:#2f2e41;}.cls-10{fill:#a0616a;}</style></defs><title>Artboard 2</title><rect class="cls-1" y="0.89" width="783" height="783"/><path class="cls-2" d="M459.57,677.9c0,12-74.14,21.69-165.76,21.76H293c-44.73,0-85.33-2.3-115.26-6l-3.78-.5c-5.09-.67-9.84-1.4-14.22-2.15-20.93-3.65-33.34-8.17-33.34-13.07,0-4,8.12-7.67,22.29-10.88,7.49-1.69,16.66-3.23,27.23-4.6,1.95-.26,3.94-.5,6-.73,29.47-3.45,68.41-5.54,111.09-5.54,8.29,0,16.45.08,24.42.23C397.82,657.92,459.57,667,459.57,677.9Z"/><rect class="cls-3" x="509.86" y="411.3" width="246.75" height="126.46"/><rect class="cls-3" x="202.97" y="85.9" width="246.75" height="126.46"/><path class="cls-4" d="M450.49,213.13H202.2v-128H450.49Zm-246.75-1.54H449V86.67H203.74Z"/><rect class="cls-3" x="509.86" y="85.9" width="246.75" height="126.46"/><rect class="cls-3" x="202.97" y="248.6" width="246.75" height="126.46"/><rect class="cls-3" x="509.86" y="248.6" width="246.75" height="126.46"/><rect class="cls-3" x="202.97" y="411.3" width="246.75" height="126.46"/><circle class="cls-3" cx="57.23" cy="149.13" r="31.61"/><path class="cls-3" d="M145.91,117.52a31.62,31.62,0,1,0,31.61,31.61h0a31.61,31.61,0,0,0-31.61-31.61Zm13.7,43.36-2.73,2.72-11.36-11.36L134.16,163.6l-2.72-2.72,11.36-11.36-12.91-12.91,2.73-2.72,12.9,12.9,12.9-12.9,2.73,2.72-12.9,12.91Z"/><polygon class="cls-4" points="54.04 164.14 39.5 144.9 42.58 142.57 54.26 158.03 87.01 120.49 89.91 123.02 54.04 164.14"/><path class="cls-2" d="M422.85,537.5q-15-2.55-28.93-4.38l3.66-7.09c-1.23-.43-6.65,3.63-6.65,3.63l4.8-20.6c-6.21.75-9.36,21.78-9.36,21.78l-6.94-7.11,3.36,8a638.58,638.58,0,0,0-73.4-4.62l3.14-6.08c-1.24-.42-6.66,3.64-6.66,3.64l4.8-20.6c-6.2.75-9.36,21.78-9.36,21.78l-6.93-7.11,3.55,8.47a413.4,413.4,0,0,0-42.19,2.86c3.17-9.46,13.93-18.46,13.93-18.46-8.22,2.45-12.53,6.55-14.78,10.36a165.83,165.83,0,0,1,9.59-57.32s-17,37-14.83,61.79l.26,4.41c-14.4,2.06-20.07,6.91-20.07,6.91Z"/><circle class="cls-5" cx="304.47" cy="285.5" r="27.27"/><polygon class="cls-2" points="597.11 458.1 593.91 455.55 611.82 439.56 657.22 439.56 657.22 453.63 627.8 473.45 597.11 458.1"/><polygon class="cls-6" points="665.49 448.53 665.49 439.88 659.47 439.88 659.47 442 657.22 439.56 642.51 455.55 636.75 459.38 627.83 524.58 641.29 538.03 672.56 538.03 672.56 456.19 665.49 448.53"/><rect class="cls-3" x="593.91" y="455.55" width="48.6" height="82.49"/><rect class="cls-6" x="612.77" y="517.89" width="8.95" height="20.14"/><polygon class="cls-2" points="603.18 523.65 603.18 520.45 599.35 520.45 599.35 523.65 602.86 523.65 603.18 523.65"/><polygon class="cls-2" points="602.86 526.2 599.35 526.2 599.35 529.4 603.18 529.4 603.18 526.2 602.86 526.2"/><rect class="cls-2" x="605.74" y="520.45" width="3.84" height="3.2"/><rect class="cls-2" x="605.74" y="526.2" width="3.84" height="3.2"/><polygon class="cls-2" points="629.4 523.65 629.4 520.45 625.56 520.45 625.56 523.65 629.08 523.65 629.4 523.65"/><polygon class="cls-2" points="629.08 526.2 625.56 526.2 625.56 529.4 629.4 529.4 629.4 526.2 629.08 526.2"/><rect class="cls-2" x="631.96" y="520.45" width="3.84" height="3.2"/><rect class="cls-2" x="631.96" y="526.2" width="3.84" height="3.2"/><polygon class="cls-2" points="656.26 459.7 656.26 456.5 652.42 456.5 652.42 459.7 655.94 459.7 656.26 459.7"/><polygon class="cls-2" points="655.94 462.26 652.42 462.26 652.42 465.46 656.26 465.46 656.26 462.26 655.94 462.26"/><rect class="cls-2" x="658.81" y="456.5" width="3.84" height="3.2"/><rect class="cls-2" x="658.81" y="462.26" width="3.84" height="3.2"/><polygon class="cls-2" points="656.26 477.61 656.26 474.41 652.42 474.41 652.42 477.61 655.94 477.61 656.26 477.61"/><polygon class="cls-2" points="655.94 480.16 652.42 480.16 652.42 483.36 656.26 483.36 656.26 480.16 655.94 480.16"/><rect class="cls-2" x="658.81" y="474.41" width="3.84" height="3.2"/><rect class="cls-2" x="658.81" y="480.16" width="3.84" height="3.2"/><polygon class="cls-2" points="656.26 495.51 656.26 492.31 652.42 492.31 652.42 495.51 655.94 495.51 656.26 495.51"/><polygon class="cls-2" points="655.94 498.07 652.42 498.07 652.42 501.27 656.26 501.27 656.26 498.07 655.94 498.07"/><rect class="cls-2" x="658.81" y="492.31" width="3.84" height="3.2"/><rect class="cls-2" x="658.81" y="498.07" width="3.84" height="3.2"/><polygon class="cls-2" points="656.26 513.41 656.26 510.22 652.42 510.22 652.42 513.41 655.94 513.41 656.26 513.41"/><polygon class="cls-2" points="655.94 515.97 652.42 515.97 652.42 519.17 656.26 519.17 656.26 515.97 655.94 515.97"/><rect class="cls-2" x="658.81" y="510.22" width="3.84" height="3.2"/><rect class="cls-2" x="658.81" y="515.97" width="3.84" height="3.2"/><rect class="cls-2" x="599.35" y="459.7" width="37.09" height="7.67"/><rect class="cls-2" x="599.35" y="475.05" width="37.09" height="7.67"/><rect class="cls-2" x="599.35" y="490.4" width="37.09" height="7.67"/><rect class="cls-2" x="599.35" y="505.74" width="37.09" height="7.67"/><polygon class="cls-2" points="304.62 453.42 337.17 453.42 337.17 445.56 355.13 445.56 355.13 453.42 388.8 453.42 388.8 488.21 355.13 488.21 355.13 531.99 337.17 531.99 337.17 488.21 304.62 488.21 287.79 469.13 304.62 453.42"/><path class="cls-2" d="M400.37,375.06h-1.54a75.57,75.57,0,0,0-151.14,0v0h-1.54a77.11,77.11,0,0,1,154.22,0Z"/><rect class="cls-2" x="284.63" y="297.57" width="1.97" height="77.84" transform="translate(-0.63 0.54) rotate(-0.11)"/><path class="cls-4" d="M304.73,307.45c.18,27.22-18.93,49.41-18.93,49.41s-19.39-21.94-19.57-49.16,18.93-49.41,18.93-49.41S304.56,280.23,304.73,307.45Z"/><path class="cls-7" d="M304.73,307.45c.18,27.22-18.93,49.41-18.93,49.41s-19.39-21.94-19.57-49.16,18.93-49.41,18.93-49.41S304.56,280.23,304.73,307.45Z"/><rect class="cls-2" x="259.01" y="297.62" width="1.97" height="77.84" transform="translate(-0.63 0.49) rotate(-0.11)"/><path class="cls-4" d="M279.11,307.5c.18,27.22-18.93,49.41-18.93,49.41S240.79,335,240.61,307.75s18.93-49.41,18.93-49.41S278.94,280.28,279.11,307.5Z"/><rect class="cls-2" x="390.58" y="313.95" width="1.56" height="61.63"/><path class="cls-4" d="M406.54,321.8c.1,21.55-15.07,39.09-15.07,39.09s-15.32-17.4-15.42-38.95,15.06-39.09,15.06-39.09S406.44,300.25,406.54,321.8Z"/><circle class="cls-2" cx="629.73" cy="313.76" r="53.63"/><polygon class="cls-4" points="635.09 293.79 635.09 316.24 602.46 316.24 596.43 323.48 597.12 316.24 594.19 316.24 594.19 293.79 635.09 293.79"/><rect class="cls-7" x="620.38" y="301.53" width="14.72" height="14.72"/><polygon class="cls-4" points="623.62 304.77 664.53 304.77 664.53 327.22 661.59 327.22 662.28 334.45 656.25 327.22 623.62 327.22 623.62 304.77"/><ellipse class="cls-7" cx="596.68" cy="326.22" rx="8.98" ry="0.88"/><ellipse class="cls-7" cx="662.28" cy="337.94" rx="10.23" ry="1"/><path class="cls-2" d="M660.17,101.62H624.74a7.52,7.52,0,0,0-7.35,5.87l-17.91,79.43a6.13,6.13,0,0,0,5.64,7.42l36.43,1.79a8,8,0,0,0,8.31-6.6L660,133.38l.76.21L662.72,123l-.78-.2,2.84-15.67a4.65,4.65,0,0,0-3.74-5.39A4.26,4.26,0,0,0,660.17,101.62Z"/><path class="cls-4" d="M629.4,103.33h-4.13a5.2,5.2,0,0,0-5.09,4.1L603,186.2a3.23,3.23,0,0,0,2.47,3.84,3.54,3.54,0,0,0,.47.07l36.31,2.38a4.19,4.19,0,0,0,4.39-3.43l14.67-81.42a3.67,3.67,0,0,0-3-4.25,3.49,3.49,0,0,0-.65-.06h-3.92a1.73,1.73,0,0,0-1.67,1.28h0a1.53,1.53,0,0,1-1.47,1.13H632a2.61,2.61,0,0,1-2.6-2.41Z"/><circle class="cls-4" cx="331.31" cy="149.25" r="51.32"/><path class="cls-2" d="M376,181.47c-9.86,0-31.61-10.12-51-22-24-14.71-47.34-33.94-43.26-40.59,1.15-1.88,4-2.38,8.73-1.51l-.34,1.85c-3.65-.68-6.13-.44-6.79.64-1,1.57,1.16,6.14,10,14.24,8.07,7.38,19.66,15.82,32.63,23.77s25.75,14.42,36,18.26c11.24,4.2,16.27,4,17.24,2.45.66-1.08-.26-3.4-2.53-6.35l1.49-1.15c2.93,3.82,3.79,6.6,2.64,8.48C380.05,180.88,378.37,181.47,376,181.47Z"/><circle class="cls-8" cx="324.98" cy="122.87" r="10.5"/><circle class="cls-8" cx="328.02" cy="180.41" r="7"/><circle class="cls-8" cx="352.12" cy="156.42" r="7"/><path class="cls-4" d="M757.38,538.53H509.09v-128H757.38ZM510.63,537H755.84V412.07H510.63Z"/><path class="cls-4" d="M755.84,376.6H507.55v-128H755.84Zm-246.75-1.54H754.3V250.14H509.09Z"/><path class="cls-2" d="M201.54,649.81c4.21,15.56,18.63,25.19,18.63,25.19s7.59-15.59,3.38-31.15-18.62-25.2-18.62-25.2S197.33,634.24,201.54,649.81Z"/><path class="cls-4" d="M207.73,646.46c11.55,11.25,13,28.53,13,28.53s-17.32-.94-28.87-12.19-13-28.53-13-28.53S196.18,635.22,207.73,646.46Z"/><path class="cls-9" d="M248.08,432.91l-12.31,1.37s-5.47,24.62,0,57.45,12.31,65.66,12.31,65.66,5.47,106.69,8.21,108.06S283.65,675,285,666.81s1.37-195.6,1.37-195.6l19.15,90.28S308.27,675,313.74,675,337,673.65,337,664.08s4.11-135.42,4.11-135.42-1.37-93-6.84-95.75S248.08,432.91,248.08,432.91Z"/><path class="cls-9" d="M259,661.34s-12.32-1.37-15,0-6.84,10.94,0,16.42,24.62,13.67,30.09,13.67A28.33,28.33,0,0,0,285,688.7l-2.73-23.25Z"/><path class="cls-9" d="M313.74,668.18l1.37,19.15s17.78,2.74,19.15,0,15-9.57,16.41-10.94,2.74-16.42-5.47-17.78-10.94,2.73-10.94,2.73Z"/><path class="cls-10" d="M345.53,270.15s29.9-19.23,29.21-32.44S356,182.84,356,182.84s-14.11-29.32-19.71-17.34,7.37,24.74,7.37,24.74l8.37,40.86-22.76,21.72Z"/><circle class="cls-10" cx="271.34" cy="218.16" r="24.62"/><path class="cls-10" d="M259,233.21l4.1,26,30.09-5.47s-1.37-26-1.37-28.73S259,233.21,259,233.21Z"/><path class="cls-2" d="M257.66,259.2s34.19-8.21,38.3-5.47,24.62,5.47,24.62,5.47l23.25,35.56L337,339.9s-1.37,72.5,1.37,84.81,17.78,13.67-13.68,16.41-36.93-1.37-58.82,4.1-39.66-2.73-34.19-8.2,15-93,4.1-101.22-15-50.61-15-50.61S257.66,266,257.66,259.2Z"/><path class="cls-2" d="M316.47,263.3l4.11-4.1,8.2-8.21s26.68,11.63,25.31,15.73-10.26,28-10.26,28l-12.31,4.11Z"/><path class="cls-9" d="M279.93,188.33l-.25-2a15.27,15.27,0,0,0-4.93.78,8.21,8.21,0,0,1,.3-3.55,16.22,16.22,0,0,0-4.56,2l-1-3.59-13.68,6.73c-4.91,2.42-10.08,5.08-12.89,9.78-3.12,5.24-2.58,12-.44,17.68s5.69,10.77,8.54,16.17a40.07,40.07,0,0,0,3.88,6.6c5.16,6.44,15.21,7.74,22.48,3.85a13,13,0,0,0,6.24-6.41,41,41,0,0,0,1.24-5.31c.9-3.68,1.94-11.26,4.93-13.59,1.32-1,3.92,2.37,5,1.11,2.8-3.24,2.21-8.24.47-12.15a89.71,89.71,0,0,0-5.83-11.38C288.51,193.6,279.9,188.1,279.93,188.33Z"/><path class="cls-10" d="M198.84,318S166,349.48,170.12,365.89s36.93,64.29,36.93,64.29,31.46,16.41,35.56,0-21.88-12.31-21.88-12.31l-20.52-49.25,23.25-32.82Z"/><path class="cls-2" d="M237.14,287.92l-16.41-2.73s-12.31,13.68-16.42,19.15S192,323.49,192,323.49L220.73,344l21.88-23.25Z"/></svg>