<svg id="bebdbc02-5f56-4bd5-9ad9-bce5f07a2c3e" xmlns="http://www.w3.org/2000/svg" viewBox="0 0 783 783.89"><defs><style>.cls-1{fill:#515254;opacity:0;}.cls-2{fill:#3f3d56;}.cls-3{fill:#f2f2f2;}.cls-4{fill:#4c65ff;}.cls-5{fill:#fff;}.cls-6{fill:#2f2e41;}.cls-7{fill:#9f616a;}.cls-8{fill:#d0cde1;}</style></defs><title>Artboard 2 copy</title><rect class="cls-1" y="0.89" width="783" height="783"/><path class="cls-2" d="M523.16,545.39v-1.61c3.2,0,6.45-.07,9.66-.2l.07,1.61C529.66,545.32,526.38,545.39,523.16,545.39Zm-9.73-.19c-3.22-.13-6.48-.32-9.71-.57l.13-1.61c3.2.25,6.45.45,9.65.57Zm29.17-.59-.13-1.61c3.2-.26,6.43-.58,9.62-1l.19,1.6C549.07,544,545.82,544.35,542.6,544.61ZM494,543.67c-3.21-.39-6.45-.84-9.63-1.35l.25-1.59c3.16.51,6.38,1,9.57,1.34Zm67.87-1.4-.26-1.59c3.16-.51,6.36-1.09,9.51-1.73l.32,1.58C568.31,541.17,565.09,541.76,561.91,542.27Zm-87.07-1.69c-3.17-.64-6.37-1.36-9.5-2.12l.38-1.57c3.11.77,6.29,1.47,9.43,2.11ZM581,538.39l-.39-1.56c3.12-.77,6.26-1.61,9.33-2.5l.45,1.55C587.28,536.77,584.11,537.62,581,538.39Zm-125-2.44c-3.11-.89-6.23-1.86-9.29-2.88l.51-1.53c3,1,6.14,2,9.23,2.86Zm143.72-3-.51-1.53c3-1,6.1-2.11,9.1-3.24l.57,1.5C605.81,530.86,602.72,532,599.66,533Zm-162.2-3.18c-3-1.15-6.07-2.37-9-3.64l.63-1.48c3,1.26,6,2.47,9,3.61Zm180.36-3.72-.63-1.48c2.95-1.26,5.9-2.59,8.79-4l.69,1.45C623.76,523.47,620.79,524.82,617.82,526.08Zm-198.3-3.92c-2.93-1.39-5.86-2.86-8.72-4.36l.75-1.43c2.84,1.5,5.75,3,8.66,4.33Zm215.83-4.41-.75-1.43c2.84-1.49,5.68-3.06,8.45-4.66l.81,1.39C641.07,514.66,638.21,516.24,635.35,517.75Zm-233.08-4.66c-2.81-1.62-5.61-3.32-8.34-5l.87-1.36c2.7,1.71,5.48,3.4,8.27,5ZM652.17,508l-.87-1.36c2.7-1.71,5.41-3.5,8.05-5.33l.92,1.32C657.61,504.49,654.88,506.3,652.17,508Zm-266.36-5.35c-2.66-1.84-5.32-3.75-7.9-5.69l1-1.29c2.56,1.93,5.2,3.83,7.85,5.66ZM668.15,497l-1-1.29c2.56-1.92,5.11-3.93,7.6-6l1,1.25C673.3,493,670.72,495,668.15,497Zm-297.9-6c-2.5-2-5-4.17-7.41-6.31l1.07-1.2c2.4,2.12,4.88,4.23,7.36,6.26Zm313-6.3-1.07-1.21c2.4-2.13,4.79-4.33,7.1-6.55l1.12,1.16C688,480.31,685.62,482.52,683.21,484.67Zm-327.52-6.61c-2.32-2.23-4.64-4.54-6.88-6.87l1.16-1.12c2.23,2.32,4.53,4.62,6.83,6.83Zm341.55-6.87-1.16-1.11c2.22-2.31,4.42-4.7,6.56-7.1l1.2,1.06C701.7,466.46,699.47,468.87,697.24,471.19Zm-355-7.15c-2.15-2.42-4.27-4.91-6.31-7.4l1.25-1c2,2.47,4.13,4.95,6.26,7.35Zm367.94-7.4-1.24-1c2-2.49,4-5.05,6-7.61l1.28,1C714.22,451.56,712.2,454.13,710.15,456.64ZM329.9,449c-1.94-2.58-3.86-5.23-5.69-7.88l1.32-.92c1.82,2.64,3.73,5.27,5.65,7.83Zm392-7.91-1.32-.91c1.83-2.65,3.63-5.36,5.34-8.07l1.36.87C725.52,435.69,723.71,438.42,721.86,441.08Zm-403-8.07c-1.73-2.72-3.42-5.51-5-8.31l1.39-.8c1.61,2.77,3.29,5.55,5,8.25Zm413.45-8.37-1.39-.81c1.61-2.79,3.19-5.64,4.68-8.47l1.42.75C735.5,419,733.92,421.83,732.29,424.64ZM309.1,416.2c-1.5-2.85-3-5.77-4.35-8.68l1.46-.69c1.37,2.89,2.83,5.79,4.32,8.62Zm432.27-8.81-1.46-.69c1.38-2.9,2.72-5.87,4-8.83l1.48.63C744.1,401.48,742.75,404.47,741.37,407.39Zm-440.61-8.71c-1.27-3-2.5-6-3.64-9l1.51-.57c1.13,3,2.35,6,3.61,8.93ZM749,389.45l-1.51-.57c1.14-3,2.24-6.08,3.25-9.12l1.53.51C751.27,383.33,750.17,386.42,749,389.45Zm-455.17-8.93c-1-3.06-2-6.19-2.9-9.29l1.54-.44c.9,3.07,1.87,6.18,2.88,9.22ZM755.18,371l-1.55-.44c.89-3.08,1.73-6.22,2.5-9.34l1.56.38C756.92,364.72,756.08,367.88,755.18,371Zm-466.76-9.13c-.77-3.14-1.49-6.33-2.13-9.49l1.57-.33c.64,3.14,1.36,6.32,2.13,9.43Zm471.4-9.76-1.58-.32c.64-3.14,1.22-6.33,1.73-9.51l1.59.26C761.05,345.7,760.46,348.92,759.82,352.08Zm-475.29-9.3c-.51-3.18-1-6.42-1.36-9.64l1.6-.19c.38,3.19.84,6.41,1.35,9.57Zm478.39-9.9-1.6-.2c.38-3.19.7-6.42,1-9.61l1.6.13c-.25,3.21-.58,6.47-1,9.68Zm-480.73-9.41c-.26-3.22-.46-6.49-.59-9.72l1.61-.06c.13,3.2.33,6.45.59,9.65Zm482.27-10-1.61-.07c.13-3.21.19-6.46.19-9.66v-.53h1.61v.53C764.65,307,764.59,310.25,764.46,313.49ZM283,304H281.4v-.27c0-3.15.06-6.33.18-9.46l1.61.06c-.12,3.11-.18,6.27-.18,9.4Zm479.82-10.46c-.13-3.2-.33-6.45-.6-9.65l1.61-.13c.26,3.22.47,6.49.6,9.71Zm-479.08-8.85-1.6-.13c.25-3.23.57-6.48,1-9.68l1.6.19C284.33,278.28,284,281.51,283.75,284.72Zm477.5-10.41c-.38-3.18-.84-6.4-1.36-9.57l1.59-.26c.52,3.19,1,6.43,1.37,9.63ZM286,265.53l-1.59-.26c.51-3.19,1.09-6.41,1.73-9.57l1.58.32C287.12,259.16,286.54,262.36,286,265.53Zm472.1-10.29c-.65-3.15-1.37-6.32-2.14-9.43l1.56-.39c.78,3.13,1.5,6.32,2.15,9.49Zm-468.28-8.65-1.56-.39c.76-3.13,1.6-6.29,2.5-9.4l1.54.45C291.46,240.33,290.62,243.47,289.86,246.59Zm463.63-10.11c-.9-3.08-1.87-6.18-2.9-9.22l1.53-.51c1,3.06,2,6.18,2.91,9.28ZM295.21,228l-1.53-.51c1-3.07,2.11-6.16,3.26-9.2l1.51.57C297.31,221.9,296.22,225,295.21,228Zm452.12-9.86c-1.14-3-2.36-6-3.62-8.93l1.48-.63c1.27,3,2.49,6,3.65,9Zm-445.27-8.27-1.49-.63c1.27-3,2.62-6,4-8.89l1.46.69C304.65,204,303.31,206.94,302.06,209.89Zm437.67-9.44c-1.38-2.89-2.83-5.79-4.33-8.62l1.43-.75c1.5,2.85,3,5.77,4.36,8.67Zm-429.38-8-1.42-.75c1.5-2.86,3.08-5.73,4.7-8.53l1.39.8C313.41,186.7,311.84,189.56,310.35,192.4Zm420.38-9c-1.61-2.77-3.3-5.54-5-8.24l1.36-.87c1.73,2.72,3.43,5.51,5,8.3ZM320,175.64l-1.36-.86c1.72-2.73,3.53-5.47,5.37-8.13l1.32.92c-1.82,2.64-3.62,5.36-5.33,8.07Zm400.34-8.53c-1.83-2.64-3.73-5.27-5.66-7.82l1.28-1c2,2.57,3.86,5.22,5.7,7.87ZM331,159.72l-1.29-1c1.94-2.58,4-5.16,6-7.66l1.25,1c-2,2.48-4,5-6,7.61Zm377.72-8c-2-2.48-4.15-4.95-6.28-7.35l1.21-1.07c2.14,2.41,4.27,4.9,6.31,7.39Zm-365.5-7-1.2-1.07c2.13-2.41,4.35-4.82,6.59-7.15l1.16,1.11c-2.22,2.32-4.42,4.71-6.55,7.11Zm352.66-7.48c-2.23-2.32-4.53-4.61-6.84-6.83l1.11-1.16c2.33,2.23,4.65,4.54,6.89,6.87Zm-339.28-6.47-1.12-1.16c2.33-2.23,4.73-4.45,7.15-6.6l1.07,1.2c-2.4,2.14-4.79,4.34-7.1,6.56ZM682,123.89c-2.41-2.13-4.89-4.24-7.37-6.26l1-1.25c2.5,2,5,4.16,7.42,6.3ZM371.07,118l-1-1.25c2.5-2,5.08-4.07,7.65-6l1,1.29c-2.56,1.92-5.11,3.93-7.59,6ZM667,111.67c-2.57-1.93-5.21-3.83-7.85-5.65l.91-1.33c2.66,1.84,5.32,3.75,7.91,5.69Zm-280.48-5.33-.91-1.32c2.65-1.84,5.38-3.65,8.09-5.38l.87,1.36C391.83,102.72,389.12,104.51,386.48,106.34ZM651,100.69c-2.71-1.72-5.5-3.4-8.28-5l.8-1.4c2.8,1.62,5.61,3.31,8.34,5ZM402.78,96,402,94.6c2.78-1.62,5.64-3.2,8.49-4.7l.76,1.42C408.38,92.82,405.54,94.39,402.78,96Zm231.49-5c-2.85-1.49-5.76-2.94-8.66-4.32l.68-1.45c2.93,1.38,5.86,2.85,8.73,4.35ZM419.83,87l-.69-1.46c2.91-1.38,5.88-2.73,8.84-4l.64,1.48c-2.94,1.26-5.9,2.6-8.79,4Zm196.94-4.26c-3-1.26-6-2.47-9-3.61l.57-1.5c3,1.14,6.07,2.36,9,3.63ZM437.55,79.41,437,77.9c3-1.15,6.1-2.25,9.16-3.28l.51,1.53C443.61,77.17,440.55,78.27,437.55,79.41ZM598.64,75.9c-3-1-6.15-2-9.23-2.86l.45-1.55c3.1.89,6.23,1.86,9.29,2.88ZM455.87,73.26l-.45-1.54c3.1-.91,6.26-1.76,9.4-2.53l.39,1.56C462.09,71.52,459,72.37,455.87,73.26Zm124.2-2.7c-3.11-.76-6.28-1.46-9.43-2.1l.31-1.58c3.18.64,6.37,1.35,9.5,2.12ZM474.63,68.62l-.32-1.57c3.16-.65,6.38-1.24,9.57-1.76l.26,1.59C481,67.39,477.77,68,474.63,68.62Zm86.5-1.87c-3.17-.51-6.39-1-9.58-1.33l.19-1.6c3.21.38,6.45.83,9.64,1.34ZM493.7,65.51l-.19-1.59c3.2-.39,6.46-.72,9.68-1l.13,1.61C500.12,64.8,496.89,65.13,493.7,65.51Zm48.24-1c-3.2-.25-6.44-.44-9.65-.56l.06-1.61c3.23.12,6.5.31,9.71.56ZM513,64l-.06-1.61c3.22-.13,6.49-.2,9.73-.21v1.61C519.42,63.75,516.16,63.82,513,64Z"/><rect class="cls-3" x="71.04" y="203.27" width="413.24" height="508.33"/><rect class="cls-4" x="71.04" y="175.3" width="413.24" height="56.64"/><rect class="cls-2" x="33.11" y="577.1" width="509.03" height="131.06"/><circle class="cls-4" cx="93.94" cy="642.43" r="35.66"/><rect class="cls-5" x="168.76" y="612.37" width="147.53" height="10.49"/><rect class="cls-5" x="168.76" y="637.54" width="325.14" height="10.49"/><rect class="cls-5" x="168.76" y="662.71" width="325.14" height="10.49"/><circle class="cls-4" cx="128.72" cy="314.44" r="35.66"/><rect class="cls-5" x="193.05" y="289.27" width="122.15" height="10.49"/><rect class="cls-5" x="193.05" y="314.44" width="269.2" height="10.49"/><rect class="cls-5" x="193.05" y="339.61" width="269.2" height="10.49"/><circle class="cls-4" cx="128.72" cy="478.32" r="35.66"/><rect class="cls-5" x="193.05" y="453.15" width="122.15" height="10.49"/><rect class="cls-5" x="193.05" y="478.32" width="269.2" height="10.49"/><rect class="cls-5" x="193.05" y="503.5" width="269.2" height="10.49"/><rect class="cls-5" x="81.53" y="186.49" width="53.14" height="7.69"/><rect class="cls-5" x="81.53" y="199.77" width="53.14" height="7.69"/><rect class="cls-5" x="81.53" y="213.06" width="53.14" height="7.69"/><rect class="cls-2" x="64.83" y="472.31" width="1.61" height="108.88"/><circle class="cls-2" cx="65.64" cy="472.31" r="15.4" transform="translate(-407.99 527.67) rotate(-88.76)"/><path class="cls-2" d="M65.64,539.41s-2.2-47.31-47.29-41.81"/><path class="cls-6" d="M562.11,369.21l-18.39,34.64s-132.92,25.46-116,65,36.06,97.58,46,96.16,64.35-32.52,66.47-41.71S491.4,471,491.4,471l84.14-16.26s12,56.57-3.53,95.46-24.75,144.24-14.14,145.65,37.47,9.9,49.49,2.12S625,519.81,625,519.81s25.45-111.71,9.9-124.44S562.11,369.21,562.11,369.21Z"/><path class="cls-6" d="M591,678.69s-16.25-8.55-19.67-1.71c0,0,2.56,20.53-7.7,23.09s-14.54,20.53,0,22.24,24-3.42,29.08-3.42,0-18,0-18Z"/><path class="cls-6" d="M513.5,536.75s-17.68-4.93-19.58,2.48c0,0,6.83,19.52-2.66,24.19s-9.88,23.13,4.69,21.73,22.68-8.39,27.7-9.47-3.79-17.56-3.79-17.56Z"/><path class="cls-7" d="M601.35,247.24s.71,26.16-4.24,28.28,27.57,14.85,27.57,14.85l5.66-9.9s-6.36-35.35-5-38.18S601.35,247.24,601.35,247.24Z"/><circle class="cls-6" cx="613.15" cy="209.83" r="43.35"/><circle class="cls-6" cx="616.14" cy="169.25" r="17.94"/><path class="cls-6" d="M592.22,159.53a17.93,17.93,0,0,1,16.07-17.84,16.61,16.61,0,0,0-1.87-.1,17.94,17.94,0,1,0,0,35.88,16.61,16.61,0,0,0,1.87-.1A18,18,0,0,1,592.22,159.53Z"/><circle class="cls-7" cx="611.96" cy="230.97" r="29.7"/><path class="cls-8" d="M632.82,269.51s-25.46,7.78-38.19,0-43.13,14.85-48.08,24.75,18.39,19.79,18.39,19.79-6.67,19.12-5.31,28.64c1.42,9.9-1.06,30.05-1.06,30.05S621,413.9,634.94,395.37c2.12-2.83,19.79-69.3,19.79-69.3l24.75-24.74s-15.55-22.63-24.75-24.75S632.82,269.51,632.82,269.51Z"/><path class="cls-7" d="M462.06,414.81S414,439.56,423.88,446.63s50.2-27.58,50.2-27.58Z"/><path class="cls-7" d="M650.85,397.14s-21.4-14.45-24.84-7.23S649.43,413.4,655.09,407,650.85,397.14,650.85,397.14Z"/><path class="cls-8" d="M666.76,293.55l12.72,7.78s43.13,59.39,28.29,72.83-53,40.3-53,40.3-12.72-18.39-8.48-19.09,38.18-29,38.18-29l-29.7-55.15Z"/><path class="cls-8" d="M555,290.72l-9.19,3.54-24,43.13-63.64,77.07s8.48,13.43,15.55,10.6,60.11-62.22,60.11-62.22l34.64-53.73Z"/><ellipse class="cls-6" cx="613.15" cy="195.69" rx="29.9" ry="17.94"/></svg>