<?xml version="1.0" encoding="utf-8"?>
<!-- Generator: Adobe Illustrator 23.1.1, SVG Export Plug-In . SVG Version: 6.00 Build 0)  -->
<svg version="1.1" id="bebdbc02-5f56-4bd5-9ad9-bce5f07a2c3e"
	 xmlns="http://www.w3.org/2000/svg" xmlns:xlink="http://www.w3.org/1999/xlink" x="0px" y="0px" viewBox="0 0 783 783.9"
	 style="enable-background:new 0 0 783 783.9;" xml:space="preserve">
<style type="text/css">
	.st0{fill:#3F3D56;}
	.st1{fill:#F2F2F2;}
	.st2{fill:#4C65FF;}
	.st3{fill:#FF6584;}
	.st4{fill:#CCCCCC;}
	.st5{opacity:0.1;enable-background:new    ;}
	.st6{fill:#FFFFFF;}
	.st7{fill:#2F2E41;}
	.st8{fill:#A0616A;}
	.st9{opacity:0;fill:#515254;}
	.st10{fill:#9F616A;}
	.st11{fill:#D0CDE1;}
	.st12{fill:#FFB9B9;}
	.st13{fill:#575A89;}
</style>
<title>lists</title>
<path class="st0" d="M-2073.7,756.1c0,15.3-94.6,27.7-211.4,27.8h-1.1c-57,0-108.8-2.9-147-7.7c-1.6-0.2-3.2-0.4-4.8-0.6
	c-6.5-0.9-12.6-1.8-18.1-2.7c-26.7-4.7-42.5-10.4-42.5-16.7c0-5.1,10.4-9.8,28.4-13.9c9.6-2.2,21.3-4.1,34.7-5.9
	c2.5-0.3,5-0.6,7.6-0.9c37.6-4.4,87.3-7.1,141.7-7.1c10.6,0,21,0.1,31.2,0.3C-2152.5,730.7-2073.7,742.2-2073.7,756.1z"/>
<rect x="-2009.6" y="416.1" class="st1" width="314.8" height="161.3"/>
<rect x="-2401" y="1" class="st1" width="314.8" height="161.3"/>
<path class="st2" d="M-2085.3,163.3H-2402V0h316.7V163.3z M-2400.1,161.3h312.8V2h-312.8V161.3z"/>
<rect x="-2009.6" y="1" class="st1" width="314.8" height="161.3"/>
<rect x="-2401" y="208.5" class="st1" width="314.8" height="161.3"/>
<rect x="-2009.6" y="208.5" class="st1" width="314.8" height="161.3"/>
<rect x="-2401" y="416.1" class="st1" width="314.8" height="161.3"/>
<circle class="st1" cx="-2586.9" cy="81.6" r="40.3"/>
<path class="st1" d="M-2473.8,41.3c-22.3,0-40.3,18.1-40.3,40.3s18.1,40.3,40.3,40.3s40.3-18.1,40.3-40.3v0
	C-2433.5,59.4-2451.6,41.3-2473.8,41.3C-2473.8,41.3-2473.8,41.3-2473.8,41.3z M-2456.4,96.6l-3.5,3.5l-14.5-14.5l-14.5,14.5
	l-3.5-3.5l14.5-14.5l-16.5-16.5l3.5-3.5l16.5,16.5l16.5-16.5l3.5,3.5l-16.5,16.5L-2456.4,96.6z"/>
<polygon class="st2" points="-2591,100.8 -2609.6,76.2 -2605.6,73.3 -2590.7,93 -2549,45.1 -2545.3,48.3 "/>
<path class="st0" d="M-2120.6,577c-12.8-2.2-25.1-4-36.9-5.6l4.7-9.1c-1.6-0.5-8.5,4.6-8.5,4.6l6.1-26.3c-7.9,1-11.9,27.8-11.9,27.8
	l-8.8-9.1l4.3,10.2c-31.1-3.8-62.3-5.7-93.6-5.9l4-7.7c-1.6-0.5-8.5,4.6-8.5,4.6l6.1-26.3c-7.9,1-11.9,27.8-11.9,27.8l-8.8-9.1
	l4.5,10.8c-18,0.3-36,1.5-53.8,3.7c4-12.1,17.8-23.5,17.8-23.5c-10.5,3.1-16,8.3-18.9,13.2c-0.3-24.9,3.9-49.7,12.2-73.1
	c0,0-21.7,47.2-18.9,78.8l0.3,5.6c-18.4,2.6-25.6,8.8-25.6,8.8L-2120.6,577z"/>
<circle class="st3" cx="-2271.6" cy="255.6" r="34.8"/>
<polygon class="st0" points="-1898.3,475.8 -1902.4,472.5 -1879.5,452.1 -1821.6,452.1 -1821.6,470.1 -1859.1,495.3 "/>
<polygon class="st4" points="-1811,463.6 -1811,452.5 -1818.7,452.5 -1818.7,455.2 -1821.6,452.1 -1840.4,472.5 -1847.7,477.4 
	-1859.1,560.6 -1841.9,577.7 -1802,577.7 -1802,473.3 "/>
<rect x="-1902.4" y="472.5" class="st1" width="62" height="105.2"/>
<rect x="-1878.3" y="552" class="st4" width="11.4" height="25.7"/>
<polygon class="st0" points="-1890.5,559.4 -1890.5,555.3 -1895.4,555.3 -1895.4,559.4 -1890.9,559.4 "/>
<polygon class="st0" points="-1890.9,562.6 -1895.4,562.6 -1895.4,566.7 -1890.5,566.7 -1890.5,562.6 "/>
<rect x="-1887.3" y="555.3" class="st0" width="4.9" height="4.1"/>
<rect x="-1887.3" y="562.6" class="st0" width="4.9" height="4.1"/>
<polygon class="st0" points="-1857.1,559.4 -1857.1,555.3 -1862,555.3 -1862,559.4 -1857.5,559.4 "/>
<polygon class="st0" points="-1857.5,562.6 -1862,562.6 -1862,566.7 -1857.1,566.7 -1857.1,562.6 "/>
<rect x="-1853.8" y="555.3" class="st0" width="4.9" height="4.1"/>
<rect x="-1853.8" y="562.6" class="st0" width="4.9" height="4.1"/>
<polygon class="st0" points="-1822.8,477.8 -1822.8,473.7 -1827.7,473.7 -1827.7,477.8 -1823.2,477.8 "/>
<polygon class="st0" points="-1823.2,481.1 -1827.7,481.1 -1827.7,485.1 -1822.8,485.1 -1822.8,481.1 "/>
<rect x="-1819.6" y="473.7" class="st0" width="4.9" height="4.1"/>
<rect x="-1819.6" y="481.1" class="st0" width="4.9" height="4.1"/>
<polygon class="st0" points="-1822.8,500.6 -1822.8,496.6 -1827.7,496.6 -1827.7,500.6 -1823.2,500.6 "/>
<polygon class="st0" points="-1823.2,503.9 -1827.7,503.9 -1827.7,508 -1822.8,508 -1822.8,503.9 "/>
<rect x="-1819.6" y="496.6" class="st0" width="4.9" height="4.1"/>
<rect x="-1819.6" y="503.9" class="st0" width="4.9" height="4.1"/>
<polygon class="st0" points="-1822.8,523.5 -1822.8,519.4 -1827.7,519.4 -1827.7,523.5 -1823.2,523.5 "/>
<polygon class="st0" points="-1823.2,526.7 -1827.7,526.7 -1827.7,530.8 -1822.8,530.8 -1822.8,526.7 "/>
<rect x="-1819.6" y="519.4" class="st0" width="4.9" height="4.1"/>
<rect x="-1819.6" y="526.7" class="st0" width="4.9" height="4.1"/>
<polygon class="st0" points="-1822.8,546.3 -1822.8,542.2 -1827.7,542.2 -1827.7,546.3 -1823.2,546.3 "/>
<polygon class="st0" points="-1823.2,549.6 -1827.7,549.6 -1827.7,553.7 -1822.8,553.7 -1822.8,549.6 "/>
<rect x="-1819.6" y="542.2" class="st0" width="4.9" height="4.1"/>
<rect x="-1819.6" y="549.6" class="st0" width="4.9" height="4.1"/>
<rect x="-1895.4" y="477.8" class="st0" width="47.3" height="9.8"/>
<rect x="-1895.4" y="497.4" class="st0" width="47.3" height="9.8"/>
<rect x="-1895.4" y="517" class="st0" width="47.3" height="9.8"/>
<rect x="-1895.4" y="536.5" class="st0" width="47.3" height="9.8"/>
<polygon class="st0" points="-2271.4,469.8 -2229.9,469.8 -2229.9,459.8 -2206.9,459.8 -2206.9,469.8 -2164,469.8 -2164,514.2 
	-2206.9,514.2 -2206.9,570 -2229.9,570 -2229.9,514.2 -2271.4,514.2 -2292.8,489.8 "/>
<path class="st0" d="M-2149.2,369.8h-2c0-53.2-43.1-96.4-96.4-96.4c-53.2,0-96.4,43.1-96.4,96.4c0,0,0,0,0,0h-2
	c0-54.3,44.1-98.4,98.4-98.3C-2193.3,271.5-2149.3,315.5-2149.2,369.8z"/>
<rect x="-2296.9" y="271" transform="matrix(1 -1.879997e-03 1.879997e-03 1 -0.6068 -4.3152)" class="st0" width="2.5" height="99.3"/>
<path class="st2" d="M-2271.2,283.6c0.2,34.7-24.2,63-24.2,63s-24.7-28-25-62.7c-0.2-34.7,24.2-63,24.2-63
	S-2271.5,248.9-2271.2,283.6z"/>
<path class="st5" d="M-2271.2,283.6c0.2,34.7-24.2,63-24.2,63s-24.7-28-25-62.7c-0.2-34.7,24.2-63,24.2-63
	S-2271.5,248.9-2271.2,283.6z"/>
<rect x="-2329.6" y="271" transform="matrix(1 -1.879997e-03 1.879997e-03 1 -0.607 -4.3766)" class="st0" width="2.5" height="99.3"/>
<path class="st2" d="M-2303.9,283.7c0.2,34.7-24.2,63-24.2,63s-24.7-28-25-62.7c-0.2-34.7,24.2-63,24.2-63
	S-2304.1,248.9-2303.9,283.7z"/>
<rect x="-2161.7" y="291.9" class="st0" width="2" height="78.6"/>
<path class="st2" d="M-2141.4,301.9c0.1,27.5-19.2,49.9-19.2,49.9s-19.5-22.2-19.7-49.7s19.2-49.9,19.2-49.9
	S-2141.5,274.4-2141.4,301.9z"/>
<circle class="st0" cx="-1856.7" cy="291.6" r="68.4"/>
<polygon class="st2" points="-1849.8,266.2 -1849.8,294.8 -1891.4,294.8 -1899.1,304 -1898.3,294.8 -1902,294.8 -1902,266.2 "/>
<rect x="-1868.6" y="276" class="st5" width="18.8" height="18.8"/>
<polygon class="st2" points="-1864.5,280.2 -1812.3,280.2 -1812.3,308.8 -1816,308.8 -1815.1,318 -1822.8,308.8 -1864.5,308.8 "/>
<ellipse class="st5" cx="-1898.8" cy="307.5" rx="11.5" ry="1.1"/>
<ellipse class="st5" cx="-1815.1" cy="322.5" rx="13" ry="1.3"/>
<path class="st0" d="M-1817.8,21h-45.2c-4.5,0-8.4,3.1-9.4,7.5l-22.8,101.3c-0.9,4.2,1.7,8.3,5.9,9.3c0.4,0.1,0.9,0.2,1.3,0.2
	l46.5,2.3c5.1,0.3,9.7-3.4,10.6-8.4l13-71.6l1,0.3l2.5-13.6l-1-0.2l3.6-20c0.6-3.2-1.6-6.3-4.8-6.9
	C-1817.1,21.1-1817.5,21-1817.8,21z"/>
<path class="st2" d="M-1857.1,23.2h-5.3c-3.1,0-5.8,2.2-6.5,5.2l-21.9,100.5c-0.5,2.2,0.9,4.4,3.1,4.9c0.2,0,0.4,0.1,0.6,0.1l46.3,3
	c2.7,0.2,5.1-1.7,5.6-4.4l18.7-103.9c0.5-2.5-1.2-5-3.8-5.4c-0.3,0-0.5-0.1-0.8-0.1h-5c-1,0-1.9,0.7-2.1,1.6l0,0
	c-0.2,0.8-1,1.4-1.9,1.4h-23.8C-1855.5,26.3-1856.9,24.9-1857.1,23.2L-1857.1,23.2z"/>
<circle class="st2" cx="-2237.3" cy="81.8" r="65.5"/>
<path class="st0" d="M-2180.3,122.9c-12.6,0-40.3-12.9-65-28c-30.6-18.8-60.4-43.3-55.2-51.8c1.5-2.4,5.1-3,11.1-1.9l-0.4,2.4
	c-4.7-0.9-7.8-0.6-8.7,0.8c-1.2,2,1.5,7.8,12.8,18.2c10.3,9.4,25.1,20.2,41.6,30.3c16.5,10.1,32.8,18.4,45.9,23.3
	c14.3,5.4,20.8,5.1,22,3.1c0.8-1.4-0.3-4.3-3.2-8.1l1.9-1.5c3.7,4.9,4.8,8.4,3.4,10.8C-2175.2,122.1-2177.3,122.9-2180.3,122.9z"/>
<circle class="st6" cx="-2245.4" cy="48.1" r="13.4"/>
<circle class="st6" cx="-2241.5" cy="121.5" r="8.9"/>
<circle class="st6" cx="-2210.8" cy="90.9" r="8.9"/>
<path class="st2" d="M-1693.8,578.4h-316.7V415.1h316.7V578.4z M-2008.6,576.4h312.8V417h-312.8V576.4z"/>
<path class="st2" d="M-1695.8,371.8h-316.7V208.5h316.7V371.8z M-2010.6,369.8h312.8V210.5h-312.8V369.8z"/>
<path class="st0" d="M-2402.9,720.3c5.4,19.9,23.8,32.1,23.8,32.1s9.7-19.9,4.3-39.7c-5.4-19.9-23.8-32.1-23.8-32.1
	S-2408.2,700.5-2402.9,720.3z"/>
<path class="st2" d="M-2395,716c14.7,14.3,16.5,36.4,16.5,36.4s-22.1-1.2-36.8-15.5s-16.5-36.4-16.5-36.4S-2409.7,701.7-2395,716z"
	/>
<path class="st7" d="M-2343.5,443.6l-15.7,1.7c0,0-7,31.4,0,73.3s15.7,83.8,15.7,83.8s7,136.1,10.5,137.8
	c3.5,1.7,34.9,12.2,36.6,1.7s1.7-249.5,1.7-249.5l24.4,115.2c0,0,3.5,144.8,10.5,144.8s29.7-1.7,29.7-14s5.2-172.7,5.2-172.7
	s-1.7-118.6-8.7-122.1S-2343.5,443.6-2343.5,443.6z"/>
<path class="st7" d="M-2329.5,735c0,0-15.7-1.7-19.2,0c-3.5,1.7-8.7,14,0,20.9s31.4,17.4,38.4,17.4s14-3.5,14-3.5l-3.5-29.7
	L-2329.5,735z"/>
<path class="st7" d="M-2259.7,743.7l1.7,24.4c0,0,22.7,3.5,24.4,0c1.7-3.5,19.2-12.2,20.9-14s3.5-20.9-7-22.7s-14,3.5-14,3.5
	L-2259.7,743.7z"/>
<path class="st8" d="M-2219.2,236c0,0,38.1-24.5,37.3-41.4c-0.9-16.9-23.9-70-23.9-70s-18-37.4-25.1-22.1s9.4,31.6,9.4,31.6
	l10.7,52.1l-29,27.7L-2219.2,236z"/>
<circle class="st8" cx="-2313.8" cy="169.7" r="31.4"/>
<path class="st8" d="M-2329.5,188.9l5.2,33.2l38.4-7c0,0-1.7-33.2-1.7-36.6S-2329.5,188.9-2329.5,188.9z"/>
<path class="st0" d="M-2331.3,222c0,0,43.6-10.5,48.9-7s31.4,7,31.4,7l29.7,45.4l-8.7,57.6c0,0-1.7,92.5,1.7,108.2
	c3.5,15.7,22.7,17.4-17.4,20.9s-47.1-1.7-75,5.2c-27.9,7-50.6-3.5-43.6-10.5s19.2-118.6,5.2-129.1s-19.2-64.6-19.2-64.6
	S-2331.3,230.8-2331.3,222z"/>
<path class="st0" d="M-2256.3,227.3l5.2-5.2l10.5-10.5c0,0,34,14.8,32.3,20.1s-13.1,35.8-13.1,35.8l-15.7,5.2L-2256.3,227.3z"/>
<path class="st7" d="M-2302.9,131.6l-0.3-2.5c-2.1,0-4.3,0.3-6.3,1c-0.2-1.5-0.1-3.1,0.4-4.5c-2.1,0.5-4,1.4-5.8,2.5l-1.3-4.6
	l-17.4,8.6c-6.3,3.1-12.9,6.5-16.4,12.5c-4,6.7-3.3,15.3-0.6,22.6s7.3,13.7,10.9,20.6c1.4,3,3,5.8,5,8.4c6.6,8.2,19.4,9.9,28.7,4.9
	c3.4-1.8,6.5-4.6,7.9-8.2c0.8-2.2,1-4.5,1.6-6.8c1.1-4.7,2.5-14.4,6.3-17.3c1.7-1.3,5,3,6.4,1.4c3.6-4.1,2.8-10.5,0.6-15.5
	c-2.1-5-4.6-9.9-7.4-14.5C-2291.9,138.4-2302.9,131.3-2302.9,131.6z"/>
<path class="st8" d="M-2406.3,297.1c0,0-41.9,40.1-36.6,61.1c5.2,20.9,47.1,82,47.1,82s40.1,20.9,45.4,0s-27.9-15.7-27.9-15.7
	l-26.2-62.8l29.7-41.9L-2406.3,297.1z"/>
<path class="st0" d="M-2357.5,258.7l-20.9-3.5c0,0-15.7,17.4-20.9,24.4c-5.2,7-15.7,24.4-15.7,24.4l36.6,26.2l27.9-29.7
	L-2357.5,258.7z"/>
<g>
	<rect x="-1626.3" y="0.9" class="st9" width="783" height="783"/>
	<g>
		<path class="st0" d="M-1166.7,677.9c0,12-74.1,21.7-165.8,21.8h-0.8c-44.7,0-85.3-2.3-115.3-6c-1.3-0.2-2.5-0.3-3.8-0.5
			c-5.1-0.7-9.8-1.4-14.2-2.1c-20.9-3.6-33.3-8.2-33.3-13.1c0-4,8.1-7.7,22.3-10.9c7.5-1.7,16.7-3.2,27.2-4.6c1.9-0.3,3.9-0.5,6-0.7
			c29.5-3.4,68.4-5.5,111.1-5.5c8.3,0,16.5,0.1,24.4,0.2C-1228.4,657.9-1166.7,667-1166.7,677.9z"/>
		<rect x="-1116.4" y="411.3" class="st1" width="246.7" height="126.5"/>
		<rect x="-1423.3" y="85.9" class="st1" width="246.7" height="126.5"/>
		<path class="st2" d="M-1175.8,213.1h-248.3v-128h248.3V213.1z M-1422.5,211.6h245.2V86.7h-245.2V211.6z"/>
		<rect x="-1116.4" y="85.9" class="st1" width="246.7" height="126.5"/>
		<rect x="-1423.3" y="248.6" class="st1" width="246.7" height="126.5"/>
		<rect x="-1116.4" y="248.6" class="st1" width="246.7" height="126.5"/>
		<rect x="-1423.3" y="411.3" class="st1" width="246.7" height="126.5"/>
		<circle class="st1" cx="-1569" cy="149.1" r="31.6"/>
		<path class="st1" d="M-1480.4,117.5c-17.5,0-31.6,14.2-31.6,31.6s14.2,31.6,31.6,31.6s31.6-14.2,31.6-31.6v0
			C-1448.7,131.7-1462.9,117.5-1480.4,117.5C-1480.4,117.5-1480.4,117.5-1480.4,117.5z M-1466.7,160.9l-2.7,2.7l-11.4-11.4
			l-11.4,11.4l-2.7-2.7l11.4-11.4l-12.9-12.9l2.7-2.7l12.9,12.9l12.9-12.9l2.7,2.7l-12.9,12.9L-1466.7,160.9z"/>
		<polygon class="st2" points="-1572.2,164.1 -1586.8,144.9 -1583.7,142.6 -1572,158 -1539.3,120.5 -1536.4,123 		"/>
		<path class="st0" d="M-1203.4,537.5c-10-1.7-19.7-3.2-28.9-4.4l3.7-7.1c-1.2-0.4-6.7,3.6-6.7,3.6l4.8-20.6
			c-6.2,0.7-9.4,21.8-9.4,21.8l-6.9-7.1l3.4,8c-24.4-2.9-48.9-4.5-73.4-4.6l3.1-6.1c-1.2-0.4-6.7,3.6-6.7,3.6l4.8-20.6
			c-6.2,0.7-9.4,21.8-9.4,21.8l-6.9-7.1l3.6,8.5c-14.1,0.2-28.2,1.2-42.2,2.9c3.2-9.5,13.9-18.5,13.9-18.5
			c-8.2,2.4-12.5,6.5-14.8,10.4c-0.2-19.5,3-38.9,9.6-57.3c0,0-17,37-14.8,61.8l0.3,4.4c-14.4,2.1-20.1,6.9-20.1,6.9L-1203.4,537.5z
			"/>
		<circle class="st3" cx="-1321.8" cy="285.5" r="27.3"/>
		<polygon class="st0" points="-1029.2,458.1 -1032.4,455.5 -1014.5,439.6 -969.1,439.6 -969.1,453.6 -998.5,473.5 		"/>
		<polygon class="st4" points="-960.8,448.5 -960.8,439.9 -966.8,439.9 -966.8,442 -969.1,439.6 -983.8,455.5 -989.5,459.4 
			-998.4,524.6 -985,538 -953.7,538 -953.7,456.2 		"/>
		<rect x="-1032.4" y="455.5" class="st1" width="48.6" height="82.5"/>
		<rect x="-1013.5" y="517.9" class="st4" width="9" height="20.1"/>
		<polygon class="st0" points="-1023.1,523.6 -1023.1,520.4 -1026.9,520.4 -1026.9,523.6 -1023.4,523.6 		"/>
		<polygon class="st0" points="-1023.4,526.2 -1026.9,526.2 -1026.9,529.4 -1023.1,529.4 -1023.1,526.2 		"/>
		<rect x="-1020.5" y="520.4" class="st0" width="3.8" height="3.2"/>
		<rect x="-1020.5" y="526.2" class="st0" width="3.8" height="3.2"/>
		<polygon class="st0" points="-996.9,523.6 -996.9,520.4 -1000.7,520.4 -1000.7,523.6 -997.2,523.6 		"/>
		<polygon class="st0" points="-997.2,526.2 -1000.7,526.2 -1000.7,529.4 -996.9,529.4 -996.9,526.2 		"/>
		<rect x="-994.3" y="520.4" class="st0" width="3.8" height="3.2"/>
		<rect x="-994.3" y="526.2" class="st0" width="3.8" height="3.2"/>
		<polygon class="st0" points="-970,459.7 -970,456.5 -973.9,456.5 -973.9,459.7 -970.3,459.7 		"/>
		<polygon class="st0" points="-970.3,462.3 -973.9,462.3 -973.9,465.5 -970,465.5 -970,462.3 		"/>
		<rect x="-967.5" y="456.5" class="st0" width="3.8" height="3.2"/>
		<rect x="-967.5" y="462.3" class="st0" width="3.8" height="3.2"/>
		<polygon class="st0" points="-970,477.6 -970,474.4 -973.9,474.4 -973.9,477.6 -970.3,477.6 		"/>
		<polygon class="st0" points="-970.3,480.2 -973.9,480.2 -973.9,483.4 -970,483.4 -970,480.2 		"/>
		<rect x="-967.5" y="474.4" class="st0" width="3.8" height="3.2"/>
		<rect x="-967.5" y="480.2" class="st0" width="3.8" height="3.2"/>
		<polygon class="st0" points="-970,495.5 -970,492.3 -973.9,492.3 -973.9,495.5 -970.3,495.5 		"/>
		<polygon class="st0" points="-970.3,498.1 -973.9,498.1 -973.9,501.3 -970,501.3 -970,498.1 		"/>
		<rect x="-967.5" y="492.3" class="st0" width="3.8" height="3.2"/>
		<rect x="-967.5" y="498.1" class="st0" width="3.8" height="3.2"/>
		<polygon class="st0" points="-970,513.4 -970,510.2 -973.9,510.2 -973.9,513.4 -970.3,513.4 		"/>
		<polygon class="st0" points="-970.3,516 -973.9,516 -973.9,519.2 -970,519.2 -970,516 		"/>
		<rect x="-967.5" y="510.2" class="st0" width="3.8" height="3.2"/>
		<rect x="-967.5" y="516" class="st0" width="3.8" height="3.2"/>
		<rect x="-1026.9" y="459.7" class="st0" width="37.1" height="7.7"/>
		<rect x="-1026.9" y="475" class="st0" width="37.1" height="7.7"/>
		<rect x="-1026.9" y="490.4" class="st0" width="37.1" height="7.7"/>
		<rect x="-1026.9" y="505.7" class="st0" width="37.1" height="7.7"/>
		<polygon class="st0" points="-1321.6,453.4 -1289.1,453.4 -1289.1,445.6 -1271.1,445.6 -1271.1,453.4 -1237.5,453.4 
			-1237.5,488.2 -1271.1,488.2 -1271.1,532 -1289.1,532 -1289.1,488.2 -1321.6,488.2 -1338.5,469.1 		"/>
		<path class="st0" d="M-1225.9,375.1h-1.5c0-41.7-33.8-75.6-75.5-75.6c-41.7,0-75.6,33.8-75.6,75.5c0,0,0,0,0,0h-1.5
			c0-42.6,34.5-77.1,77.1-77.1C-1260.4,298-1225.9,332.5-1225.9,375.1z"/>
		
			<rect x="-1341.6" y="297.6" transform="matrix(1 -1.879997e-03 1.879997e-03 1 -0.635 -2.5198)" class="st0" width="2" height="77.8"/>
		<path class="st2" d="M-1321.5,307.5c0.2,27.2-18.9,49.4-18.9,49.4s-19.4-21.9-19.6-49.2c-0.2-27.2,18.9-49.4,18.9-49.4
			S-1321.7,280.2-1321.5,307.5z"/>
		<path class="st5" d="M-1321.5,307.5c0.2,27.2-18.9,49.4-18.9,49.4s-19.4-21.9-19.6-49.2c-0.2-27.2,18.9-49.4,18.9-49.4
			S-1321.7,280.2-1321.5,307.5z"/>
		
			<rect x="-1367.3" y="297.6" transform="matrix(1 -1.879997e-03 1.879997e-03 1 -0.6351 -2.568)" class="st0" width="2" height="77.8"/>
		<path class="st2" d="M-1347.2,307.5c0.2,27.2-18.9,49.4-18.9,49.4s-19.4-21.9-19.6-49.2c-0.2-27.2,18.9-49.4,18.9-49.4
			S-1347.3,280.3-1347.2,307.5z"/>
		<rect x="-1235.7" y="313.9" class="st0" width="1.6" height="61.6"/>
		<path class="st2" d="M-1219.7,321.8c0.1,21.5-15.1,39.1-15.1,39.1s-15.3-17.4-15.4-38.9c-0.1-21.5,15.1-39.1,15.1-39.1
			S-1219.8,300.3-1219.7,321.8z"/>
		<circle class="st0" cx="-996.5" cy="313.8" r="53.6"/>
		<polygon class="st2" points="-991.2,293.8 -991.2,316.2 -1023.8,316.2 -1029.8,323.5 -1029.2,316.2 -1032.1,316.2 -1032.1,293.8 
					"/>
		<rect x="-1005.9" y="301.5" class="st5" width="14.7" height="14.7"/>
		<polygon class="st2" points="-1002.7,304.8 -961.7,304.8 -961.7,327.2 -964.7,327.2 -964,334.5 -970,327.2 -1002.7,327.2 		"/>
		<ellipse class="st5" cx="-1029.6" cy="326.2" rx="9" ry="0.9"/>
		<ellipse class="st5" cx="-964" cy="337.9" rx="10.2" ry="1"/>
		<path class="st0" d="M-966.1,101.6h-35.4c-3.5,0-6.6,2.4-7.3,5.9l-17.9,79.4c-0.7,3.3,1.3,6.5,4.6,7.3c0.3,0.1,0.7,0.1,1,0.1
			l36.4,1.8c4,0.2,7.6-2.6,8.3-6.6l10.2-56.2l0.8,0.2l1.9-10.6l-0.8-0.2l2.8-15.7c0.5-2.5-1.2-4.9-3.7-5.4
			C-965.5,101.6-965.8,101.6-966.1,101.6z"/>
		<path class="st2" d="M-996.9,103.3h-4.1c-2.4,0-4.6,1.7-5.1,4.1l-17.2,78.8c-0.4,1.7,0.7,3.5,2.5,3.8c0.2,0,0.3,0.1,0.5,0.1
			l36.3,2.4c2.1,0.1,4-1.3,4.4-3.4l14.7-81.4c0.4-2-1-3.9-3-4.2c-0.2,0-0.4-0.1-0.6-0.1h-3.9c-0.8,0-1.5,0.5-1.7,1.3l0,0
			c-0.2,0.7-0.8,1.1-1.5,1.1h-18.6C-995.6,105.7-996.8,104.7-996.9,103.3L-996.9,103.3z"/>
		<circle class="st2" cx="-1295" cy="149.2" r="51.3"/>
		<path class="st0" d="M-1250.3,181.5c-9.9,0-31.6-10.1-51-22c-24-14.7-47.3-33.9-43.3-40.6c1.2-1.9,4-2.4,8.7-1.5l-0.3,1.8
			c-3.7-0.7-6.1-0.4-6.8,0.6c-1,1.6,1.2,6.1,10,14.2c8.1,7.4,19.7,15.8,32.6,23.8c13,7.9,25.8,14.4,36,18.3
			c11.2,4.2,16.3,4,17.2,2.5c0.7-1.1-0.3-3.4-2.5-6.4l1.5-1.1c2.9,3.8,3.8,6.6,2.6,8.5C-1246.2,180.9-1247.9,181.5-1250.3,181.5z"/>
		<circle class="st6" cx="-1301.3" cy="122.9" r="10.5"/>
		<circle class="st6" cx="-1298.3" cy="180.4" r="7"/>
		<circle class="st6" cx="-1274.2" cy="156.4" r="7"/>
		<path class="st2" d="M-868.9,538.5h-248.3v-128h248.3L-868.9,538.5z M-1115.6,537h245.2V412.1h-245.2V537z"/>
		<path class="st2" d="M-870.4,376.6h-248.3v-128h248.3V376.6z M-1117.2,375.1H-872V250.1h-245.2V375.1z"/>
		<path class="st0" d="M-1424.7,649.8c4.2,15.6,18.6,25.2,18.6,25.2s7.6-15.6,3.4-31.2c-4.2-15.6-18.6-25.2-18.6-25.2
			S-1428.9,634.2-1424.7,649.8z"/>
		<path class="st2" d="M-1418.5,646.5c11.6,11.2,13,28.5,13,28.5s-17.3-0.9-28.9-12.2c-11.6-11.2-13-28.5-13-28.5
			S-1430.1,635.2-1418.5,646.5z"/>
		<path class="st7" d="M-1378.2,432.9l-12.3,1.4c0,0-5.5,24.6,0,57.4c5.5,32.8,12.3,65.7,12.3,65.7s5.5,106.7,8.2,108.1
			c2.7,1.4,27.4,9.6,28.7,1.4c1.4-8.2,1.4-195.6,1.4-195.6l19.1,90.3c0,0,2.7,113.5,8.2,113.5s23.3-1.4,23.3-10.9
			s4.1-135.4,4.1-135.4s-1.4-93-6.8-95.7S-1378.2,432.9-1378.2,432.9z"/>
		<path class="st7" d="M-1367.2,661.3c0,0-12.3-1.4-15,0c-2.7,1.4-6.8,10.9,0,16.4s24.6,13.7,30.1,13.7s10.9-2.7,10.9-2.7l-2.7-23.3
			L-1367.2,661.3z"/>
		<path class="st7" d="M-1312.5,668.2l1.4,19.1c0,0,17.8,2.7,19.1,0s15-9.6,16.4-10.9c1.4-1.4,2.7-16.4-5.5-17.8
			c-8.2-1.4-10.9,2.7-10.9,2.7L-1312.5,668.2z"/>
		<path class="st8" d="M-1280.7,270.2c0,0,29.9-19.2,29.2-32.4c-0.7-13.2-18.7-54.9-18.7-54.9s-14.1-29.3-19.7-17.3
			s7.4,24.7,7.4,24.7l8.4,40.9l-22.8,21.7L-1280.7,270.2z"/>
		<circle class="st8" cx="-1354.9" cy="218.2" r="24.6"/>
		<path class="st8" d="M-1367.2,233.2l4.1,26l30.1-5.5c0,0-1.4-26-1.4-28.7C-1334.4,222.3-1367.2,233.2-1367.2,233.2z"/>
		<path class="st0" d="M-1368.6,259.2c0,0,34.2-8.2,38.3-5.5c4.1,2.7,24.6,5.5,24.6,5.5l23.3,35.6l-6.8,45.1c0,0-1.4,72.5,1.4,84.8
			c2.7,12.3,17.8,13.7-13.7,16.4c-31.5,2.7-36.9-1.4-58.8,4.1c-21.9,5.5-39.7-2.7-34.2-8.2c5.5-5.5,15-93,4.1-101.2
			s-15-50.6-15-50.6S-1368.6,266-1368.6,259.2z"/>
		<path class="st0" d="M-1309.8,263.3l4.1-4.1l8.2-8.2c0,0,26.7,11.6,25.3,15.7c-1.4,4.1-10.3,28-10.3,28l-12.3,4.1L-1309.8,263.3z"
			/>
		<path class="st7" d="M-1346.3,188.3l-0.3-2c-1.7,0-3.3,0.3-4.9,0.8c-0.2-1.2-0.1-2.4,0.3-3.5c-1.6,0.4-3.2,1.1-4.6,2l-1-3.6
			l-13.7,6.7c-4.9,2.4-10.1,5.1-12.9,9.8c-3.1,5.2-2.6,12-0.4,17.7c2.1,5.7,5.7,10.8,8.5,16.2c1.1,2.3,2.4,4.5,3.9,6.6
			c5.2,6.4,15.2,7.7,22.5,3.9c2.7-1.4,5.1-3.6,6.2-6.4c0.7-1.7,0.8-3.5,1.2-5.3c0.9-3.7,1.9-11.3,4.9-13.6c1.3-1,3.9,2.4,5,1.1
			c2.8-3.2,2.2-8.2,0.5-12.1c-1.7-3.9-3.6-7.7-5.8-11.4C-1337.8,193.6-1346.4,188.1-1346.3,188.3z"/>
		<path class="st8" d="M-1427.4,318c0,0-32.8,31.5-28.7,47.9s36.9,64.3,36.9,64.3s31.5,16.4,35.6,0s-21.9-12.3-21.9-12.3l-20.5-49.2
			l23.3-32.8L-1427.4,318z"/>
		<path class="st0" d="M-1389.1,287.9l-16.4-2.7c0,0-12.3,13.7-16.4,19.1c-4.1,5.5-12.3,19.1-12.3,19.1l28.7,20.5l21.9-23.3
			L-1389.1,287.9z"/>
	</g>
</g>
<g>
	<rect x="-812.5" y="0.9" class="st9" width="783" height="783"/>
	<g>
		<path class="st0" d="M-289.3,545.4l0-1.6c3.2,0,6.5-0.1,9.7-0.2l0.1,1.6C-282.8,545.3-286.1,545.4-289.3,545.4z M-299,545.2
			c-3.2-0.1-6.5-0.3-9.7-0.6l0.1-1.6c3.2,0.3,6.4,0.4,9.6,0.6L-299,545.2z M-269.9,544.6l-0.1-1.6c3.2-0.3,6.4-0.6,9.6-1l0.2,1.6
			C-263.4,544-266.7,544.3-269.9,544.6z M-318.4,543.7c-3.2-0.4-6.5-0.8-9.6-1.3l0.3-1.6c3.2,0.5,6.4,1,9.6,1.3L-318.4,543.7z
			 M-250.6,542.3l-0.3-1.6c3.2-0.5,6.4-1.1,9.5-1.7l0.3,1.6C-244.2,541.2-247.4,541.8-250.6,542.3z M-337.6,540.6
			c-3.2-0.6-6.4-1.4-9.5-2.1l0.4-1.6c3.1,0.8,6.3,1.5,9.4,2.1L-337.6,540.6z M-231.5,538.4l-0.4-1.6c3.1-0.8,6.3-1.6,9.3-2.5
			l0.4,1.5C-225.2,536.8-228.4,537.6-231.5,538.4z M-356.5,536c-3.1-0.9-6.2-1.9-9.3-2.9l0.5-1.5c3,1,6.1,2,9.2,2.9L-356.5,536z
			 M-212.8,533l-0.5-1.5c3-1,6.1-2.1,9.1-3.2l0.6,1.5C-206.7,530.9-209.8,532-212.8,533z M-375,529.8c-3-1.1-6.1-2.4-9-3.6l0.6-1.5
			c3,1.3,6,2.5,9,3.6L-375,529.8z M-194.7,526.1l-0.6-1.5c2.9-1.3,5.9-2.6,8.8-4l0.7,1.5C-188.7,523.5-191.7,524.8-194.7,526.1z
			 M-393,522.2c-2.9-1.4-5.9-2.9-8.7-4.4l0.7-1.4c2.8,1.5,5.8,2.9,8.7,4.3L-393,522.2z M-177.1,517.7l-0.8-1.4
			c2.8-1.5,5.7-3.1,8.4-4.7l0.8,1.4C-171.4,514.7-174.3,516.2-177.1,517.7z M-410.2,513.1c-2.8-1.6-5.6-3.3-8.3-5l0.9-1.4
			c2.7,1.7,5.5,3.4,8.3,5L-410.2,513.1z M-160.3,508l-0.9-1.4c2.7-1.7,5.4-3.5,8-5.3l0.9,1.3C-154.9,504.5-157.6,506.3-160.3,508z
			 M-426.7,502.7c-2.7-1.8-5.3-3.8-7.9-5.7l1-1.3c2.6,1.9,5.2,3.8,7.8,5.7L-426.7,502.7z M-144.3,497l-1-1.3c2.6-1.9,5.1-3.9,7.6-6
			l1,1.2C-139.2,493-141.8,495-144.3,497z M-442.2,491c-2.5-2-5-4.2-7.4-6.3l1.1-1.2c2.4,2.1,4.9,4.2,7.4,6.3L-442.2,491z
			 M-129.3,484.7l-1.1-1.2c2.4-2.1,4.8-4.3,7.1-6.6l1.1,1.2C-124.4,480.3-126.9,482.5-129.3,484.7z M-456.8,478.1
			c-2.3-2.2-4.6-4.5-6.9-6.9l1.2-1.1c2.2,2.3,4.5,4.6,6.8,6.8L-456.8,478.1z M-115.2,471.2l-1.2-1.1c2.2-2.3,4.4-4.7,6.6-7.1
			l1.2,1.1C-110.8,466.5-113,468.9-115.2,471.2z M-470.3,464c-2.1-2.4-4.3-4.9-6.3-7.4l1.2-1c2,2.5,4.1,4.9,6.3,7.4L-470.3,464z
			 M-102.3,456.6l-1.2-1c2-2.5,4-5,6-7.6l1.3,1C-98.3,451.6-100.3,454.1-102.3,456.6z M-482.6,449c-1.9-2.6-3.9-5.2-5.7-7.9l1.3-0.9
			c1.8,2.6,3.7,5.3,5.7,7.8L-482.6,449z M-90.6,441.1l-1.3-0.9c1.8-2.6,3.6-5.4,5.3-8.1l1.4,0.9C-87,435.7-88.8,438.4-90.6,441.1z
			 M-493.6,433c-1.7-2.7-3.4-5.5-5-8.3l1.4-0.8c1.6,2.8,3.3,5.5,5,8.3L-493.6,433z M-80.2,424.6l-1.4-0.8c1.6-2.8,3.2-5.6,4.7-8.5
			l1.4,0.8C-77,419-78.6,421.8-80.2,424.6z M-503.4,416.2c-1.5-2.8-3-5.8-4.4-8.7l1.5-0.7c1.4,2.9,2.8,5.8,4.3,8.6L-503.4,416.2z
			 M-71.1,407.4l-1.5-0.7c1.4-2.9,2.7-5.9,4-8.8l1.5,0.6C-68.4,401.5-69.7,404.5-71.1,407.4z M-511.7,398.7c-1.3-3-2.5-6-3.6-9
			l1.5-0.6c1.1,3,2.3,6,3.6,8.9L-511.7,398.7z M-63.5,389.5l-1.5-0.6c1.1-3,2.2-6.1,3.3-9.1l1.5,0.5
			C-61.2,383.3-62.3,386.4-63.5,389.5z M-518.6,380.5c-1-3.1-2-6.2-2.9-9.3l1.5-0.4c0.9,3.1,1.9,6.2,2.9,9.2L-518.6,380.5z
			 M-57.3,371l-1.5-0.4c0.9-3.1,1.7-6.2,2.5-9.3l1.6,0.4C-55.6,364.7-56.4,367.9-57.3,371z M-524.1,361.8c-0.8-3.1-1.5-6.3-2.1-9.5
			l1.6-0.3c0.6,3.1,1.4,6.3,2.1,9.4L-524.1,361.8z M-52.7,352.1l-1.6-0.3c0.6-3.1,1.2-6.3,1.7-9.5l1.6,0.3
			C-51.4,345.7-52,348.9-52.7,352.1z M-527.9,342.8c-0.5-3.2-1-6.4-1.4-9.6l1.6-0.2c0.4,3.2,0.8,6.4,1.4,9.6L-527.9,342.8z
			 M-49.6,332.9l-1.6-0.2c0.4-3.2,0.7-6.4,1-9.6l1.6,0.1C-48.8,326.4-49.2,329.7-49.6,332.9L-49.6,332.9z M-530.3,323.5
			c-0.3-3.2-0.5-6.5-0.6-9.7l1.6-0.1c0.1,3.2,0.3,6.5,0.6,9.6L-530.3,323.5z M-48,313.5l-1.6-0.1c0.1-3.2,0.2-6.5,0.2-9.7l0-0.5h1.6
			l0,0.5C-47.8,307-47.9,310.3-48,313.5z M-529.5,304h-1.6l0-0.3c0-3.1,0.1-6.3,0.2-9.5l1.6,0.1c-0.1,3.1-0.2,6.3-0.2,9.4
			L-529.5,304z M-49.6,293.6c-0.1-3.2-0.3-6.4-0.6-9.6l1.6-0.1c0.3,3.2,0.5,6.5,0.6,9.7L-49.6,293.6z M-528.7,284.7l-1.6-0.1
			c0.3-3.2,0.6-6.5,1-9.7l1.6,0.2C-528.2,278.3-528.5,281.5-528.7,284.7z M-51.2,274.3c-0.4-3.2-0.8-6.4-1.4-9.6l1.6-0.3
			c0.5,3.2,1,6.4,1.4,9.6L-51.2,274.3z M-526.4,265.5l-1.6-0.3c0.5-3.2,1.1-6.4,1.7-9.6l1.6,0.3
			C-525.4,259.2-525.9,262.4-526.4,265.5z M-54.3,255.2c-0.6-3.1-1.4-6.3-2.1-9.4l1.6-0.4c0.8,3.1,1.5,6.3,2.1,9.5L-54.3,255.2z
			 M-522.6,246.6l-1.6-0.4c0.8-3.1,1.6-6.3,2.5-9.4l1.5,0.4C-521,240.3-521.9,243.5-522.6,246.6z M-59,236.5
			c-0.9-3.1-1.9-6.2-2.9-9.2l1.5-0.5c1,3.1,2,6.2,2.9,9.3L-59,236.5z M-517.3,228l-1.5-0.5c1-3.1,2.1-6.2,3.3-9.2l1.5,0.6
			C-515.2,221.9-516.3,225-517.3,228z M-65.1,218.2c-1.1-3-2.4-6-3.6-8.9l1.5-0.6c1.3,3,2.5,6,3.6,9L-65.1,218.2z M-510.4,209.9
			l-1.5-0.6c1.3-3,2.6-6,4-8.9l1.5,0.7C-507.8,204-509.2,206.9-510.4,209.9z M-72.7,200.4c-1.4-2.9-2.8-5.8-4.3-8.6l1.4-0.8
			c1.5,2.8,3,5.8,4.4,8.7L-72.7,200.4z M-502.1,192.4l-1.4-0.7c1.5-2.9,3.1-5.7,4.7-8.5l1.4,0.8
			C-499.1,186.7-500.6,189.6-502.1,192.4z M-81.7,183.4c-1.6-2.8-3.3-5.5-5-8.2l1.4-0.9c1.7,2.7,3.4,5.5,5,8.3L-81.7,183.4z
			 M-492.4,175.6l-1.4-0.9c1.7-2.7,3.5-5.5,5.4-8.1l1.3,0.9C-488.9,170.2-490.7,172.9-492.4,175.6L-492.4,175.6z M-92.1,167.1
			c-1.8-2.6-3.7-5.3-5.7-7.8l1.3-1c1.9,2.6,3.9,5.2,5.7,7.9L-92.1,167.1z M-481.5,159.7l-1.3-1c1.9-2.6,4-5.2,6-7.7l1.2,1
			C-477.5,154.6-479.5,157.2-481.5,159.7L-481.5,159.7z M-103.7,151.7c-2-2.5-4.1-5-6.3-7.3l1.2-1.1c2.1,2.4,4.3,4.9,6.3,7.4
			L-103.7,151.7z M-469.2,144.7l-1.2-1.1c2.1-2.4,4.4-4.8,6.6-7.2l1.2,1.1C-464.9,139.9-467.1,142.3-469.2,144.7L-469.2,144.7z
			 M-116.6,137.3c-2.2-2.3-4.5-4.6-6.8-6.8l1.1-1.2c2.3,2.2,4.6,4.5,6.9,6.9L-116.6,137.3z M-455.9,130.8l-1.1-1.2
			c2.3-2.2,4.7-4.5,7.1-6.6l1.1,1.2C-451.2,126.4-453.5,128.6-455.9,130.8L-455.9,130.8z M-130.5,123.9c-2.4-2.1-4.9-4.2-7.4-6.3
			l1-1.2c2.5,2,5,4.2,7.4,6.3L-130.5,123.9z M-441.4,118l-1-1.2c2.5-2,5.1-4.1,7.6-6l1,1.3C-436.4,113.9-438.9,115.9-441.4,118
			L-441.4,118z M-145.5,111.7c-2.6-1.9-5.2-3.8-7.9-5.6l0.9-1.3c2.7,1.8,5.3,3.7,7.9,5.7L-145.5,111.7z M-426,106.3l-0.9-1.3
			c2.7-1.8,5.4-3.6,8.1-5.4l0.9,1.4C-420.6,102.7-423.4,104.5-426,106.3z M-161.4,100.7c-2.7-1.7-5.5-3.4-8.3-5l0.8-1.4
			c2.8,1.6,5.6,3.3,8.3,5L-161.4,100.7z M-409.7,96l-0.8-1.4c2.8-1.6,5.6-3.2,8.5-4.7l0.8,1.4C-404.1,92.8-406.9,94.4-409.7,96z
			 M-178.2,91c-2.8-1.5-5.8-2.9-8.7-4.3l0.7-1.5c2.9,1.4,5.9,2.8,8.7,4.3L-178.2,91z M-392.6,87l-0.7-1.5c2.9-1.4,5.9-2.7,8.8-4
			l0.6,1.5C-386.8,84.3-389.8,85.6-392.6,87L-392.6,87z M-195.7,82.7c-3-1.3-6-2.5-9-3.6l0.6-1.5c3,1.1,6.1,2.4,9.1,3.6L-195.7,82.7
			z M-374.9,79.4l-0.6-1.5c3-1.1,6.1-2.3,9.2-3.3l0.5,1.5C-368.9,77.2-371.9,78.3-374.9,79.4z M-213.8,75.9c-3-1-6.2-2-9.2-2.9
			l0.4-1.5c3.1,0.9,6.2,1.9,9.3,2.9L-213.8,75.9z M-356.6,73.3l-0.4-1.5c3.1-0.9,6.3-1.8,9.4-2.5l0.4,1.6
			C-350.4,71.5-353.5,72.4-356.6,73.3z M-232.4,70.6c-3.1-0.8-6.3-1.5-9.4-2.1l0.3-1.6c3.2,0.6,6.4,1.3,9.5,2.1L-232.4,70.6z
			 M-337.8,68.6l-0.3-1.6c3.2-0.6,6.4-1.2,9.6-1.8l0.3,1.6C-331.5,67.4-334.7,68-337.8,68.6z M-251.3,66.7c-3.2-0.5-6.4-1-9.6-1.3
			l0.2-1.6c3.2,0.4,6.4,0.8,9.6,1.3L-251.3,66.7z M-318.8,65.5l-0.2-1.6c3.2-0.4,6.5-0.7,9.7-1l0.1,1.6
			C-312.4,64.8-315.6,65.1-318.8,65.5z M-270.5,64.5c-3.2-0.2-6.4-0.4-9.6-0.6l0.1-1.6c3.2,0.1,6.5,0.3,9.7,0.6L-270.5,64.5z
			 M-299.5,63.9l-0.1-1.6c3.2-0.1,6.5-0.2,9.7-0.2l0,1.6C-293.1,63.7-296.3,63.8-299.5,63.9z"/>
		<rect x="-741.4" y="203.3" class="st1" width="413.2" height="508.3"/>
		<rect x="-741.4" y="175.3" class="st2" width="413.2" height="56.6"/>
		<rect x="-779.4" y="577.1" class="st0" width="509" height="131.1"/>
		<circle class="st2" cx="-718.5" cy="642.4" r="35.7"/>
		<rect x="-643.7" y="612.4" class="st6" width="147.5" height="10.5"/>
		<rect x="-643.7" y="637.5" class="st6" width="325.1" height="10.5"/>
		<rect x="-643.7" y="662.7" class="st6" width="325.1" height="10.5"/>
		<circle class="st2" cx="-683.8" cy="314.4" r="35.7"/>
		<rect x="-619.4" y="289.3" class="st6" width="122.2" height="10.5"/>
		<rect x="-619.4" y="314.4" class="st6" width="269.2" height="10.5"/>
		<rect x="-619.4" y="339.6" class="st6" width="269.2" height="10.5"/>
		<circle class="st2" cx="-683.8" cy="478.3" r="35.7"/>
		<rect x="-619.4" y="453.2" class="st6" width="122.2" height="10.5"/>
		<rect x="-619.4" y="478.3" class="st6" width="269.2" height="10.5"/>
		<rect x="-619.4" y="503.5" class="st6" width="269.2" height="10.5"/>
		<rect x="-730.9" y="186.5" class="st6" width="53.1" height="7.7"/>
		<rect x="-730.9" y="199.8" class="st6" width="53.1" height="7.7"/>
		<rect x="-730.9" y="213.1" class="st6" width="53.1" height="7.7"/>
		<rect x="-747.6" y="472.3" class="st0" width="1.6" height="108.9"/>
		
			<ellipse transform="matrix(2.172372e-02 -0.9998 0.9998 2.172372e-02 -1202.8113 -284.6163)" class="st0" cx="-746.8" cy="472.3" rx="15.4" ry="15.4"/>
		<path class="st0" d="M-746.8,539.4c0,0-2.2-47.3-47.3-41.8"/>
		<path class="st7" d="M-250.4,369.2l-18.4,34.6c0,0-132.9,25.5-116,65.1c17,39.6,36.1,97.6,46,96.2c9.9-1.4,64.3-32.5,66.5-41.7
			s-48.8-52.3-48.8-52.3l84.1-16.3c0,0,12,56.6-3.5,95.5s-24.7,144.2-14.1,145.7c10.6,1.4,37.5,9.9,49.5,2.1
			c12-7.8,17.7-178.2,17.7-178.2s25.5-111.7,9.9-124.4S-250.4,369.2-250.4,369.2z"/>
		<path class="st7" d="M-221.5,678.7c0,0-16.2-8.6-19.7-1.7c0,0,2.6,20.5-7.7,23.1c-10.3,2.6-14.5,20.5,0,22.2
			c14.5,1.7,23.9-3.4,29.1-3.4s0-18,0-18L-221.5,678.7z"/>
		<path class="st7" d="M-299,536.8c0,0-17.7-4.9-19.6,2.5c0,0,6.8,19.5-2.7,24.2c-9.5,4.7-9.9,23.1,4.7,21.7
			c14.6-1.4,22.7-8.4,27.7-9.5c5-1.1-3.8-17.6-3.8-17.6L-299,536.8z"/>
		<path class="st10" d="M-211.1,247.2c0,0,0.7,26.2-4.2,28.3c-4.9,2.1,27.6,14.8,27.6,14.8l5.7-9.9c0,0-6.4-35.4-4.9-38.2
			S-211.1,247.2-211.1,247.2z"/>
		<circle class="st7" cx="-199.3" cy="209.8" r="43.4"/>
		<circle class="st7" cx="-196.3" cy="169.2" r="17.9"/>
		<path class="st7" d="M-220.3,159.5c0-9.2,6.9-16.9,16.1-17.8c-0.6-0.1-1.2-0.1-1.9-0.1c-9.9,0-17.9,8-17.9,17.9
			c0,9.9,8,17.9,17.9,17.9c0.6,0,1.2,0,1.9-0.1C-213.3,176.4-220.3,168.7-220.3,159.5z"/>
		<circle class="st10" cx="-200.5" cy="231" r="29.7"/>
		<path class="st11" d="M-179.7,269.5c0,0-25.5,7.8-38.2,0s-43.1,14.8-48.1,24.7c-4.9,9.9,18.4,19.8,18.4,19.8s-6.7,19.1-5.3,28.6
			c1.4,9.9-1.1,30.1-1.1,30.1s62.5,41.2,76.4,22.6c2.1-2.8,19.8-69.3,19.8-69.3l24.7-24.7c0,0-15.6-22.6-24.7-24.7
			C-166.9,274.5-179.7,269.5-179.7,269.5z"/>
		<path class="st10" d="M-350.4,414.8c0,0-48.1,24.7-38.2,31.8s50.2-27.6,50.2-27.6L-350.4,414.8z"/>
		<path class="st10" d="M-161.6,397.1c0,0-21.4-14.4-24.8-7.2c-3.4,7.2,23.4,23.5,29.1,17.1C-151.7,400.7-161.6,397.1-161.6,397.1z"
			/>
		<path class="st11" d="M-145.7,293.5l12.7,7.8c0,0,43.1,59.4,28.3,72.8s-53,40.3-53,40.3s-12.7-18.4-8.5-19.1s38.2-29,38.2-29
			l-29.7-55.2L-145.7,293.5z"/>
		<path class="st11" d="M-257.4,290.7l-9.2,3.5l-24,43.1l-63.6,77.1c0,0,8.5,13.4,15.6,10.6c7.1-2.8,60.1-62.2,60.1-62.2l34.6-53.7
			L-257.4,290.7z"/>
		<ellipse class="st7" cx="-199.3" cy="195.7" rx="29.9" ry="17.9"/>
	</g>
</g>
<g>
	<rect y="0.9" class="st9" width="783" height="783"/>
	<g>
		<rect x="83.3" y="287" class="st0" width="16" height="20.8"/>
		<rect x="438.2" y="578.8" class="st0" width="16" height="20.8"/>
		<rect x="675.9" y="364.5" class="st0" width="20.8" height="16"/>
		<circle class="st7" cx="643.1" cy="533.7" r="63.3"/>
		<polygon class="st7" points="667.6,620.4 686.5,616.9 680.4,577.5 661.4,580.9 		"/>
		
			<rect x="626.5" y="585.7" transform="matrix(0.984 -0.1781 0.1781 0.984 -97.232 122.9621)" class="st7" width="19.2" height="34.4"/>
		
			<ellipse transform="matrix(0.7631 -0.6463 0.6463 0.7631 -252.7298 558.8299)" class="st7" cx="635.9" cy="624.2" rx="16" ry="6"/>
		
			<ellipse transform="matrix(0.7631 -0.6463 0.6463 0.7631 -243.2466 582.5034)" class="st7" cx="672.9" cy="623.1" rx="16" ry="6"/>
		<circle class="st6" cx="638.7" cy="518.3" r="21.6"/>
		<circle class="st0" cx="629.8" cy="510.5" r="7.2"/>
		<path class="st2" d="M693,464.9c1-23.4-19.2-43.3-45.1-44.3c-25.9-1.1-47.6,17.1-48.5,40.5c-1,23.4,17,28.7,42.9,29.8
			C668.2,492,692.1,488.3,693,464.9z"/>
		
			<ellipse transform="matrix(0.2234 -0.9747 0.9747 0.2234 -54.9204 975.4903)" class="st7" cx="584.7" cy="522.2" rx="9.9" ry="31.6"/>
		
			<ellipse transform="matrix(0.2234 -0.9747 0.9747 0.2234 21.3841 1112.5647)" class="st7" cx="708.9" cy="542.9" rx="9.9" ry="31.6"/>
		<path class="st6" d="M660.5,558.7c1.4,7.8-3.8,15.3-11.6,16.8s-15.3-3.8-16.8-11.6l0,0c-1.4-7.8,4.6-10.6,12.5-12
			C652.5,550.4,659.1,550.8,660.5,558.7z"/>
		<polygon class="st12" points="314.4,575.6 312.2,604.2 333.4,606.4 328.3,572 		"/>
		<path class="st7" d="M240.3,315.3L240.3,315.3c18.1,5.6,27.8,26.4,21.6,46.5l-7.9,25.6l-7.9-2.4l-1.6-10.9l-1.8,9.8l-50.5-15.6
			l-1.5-9.9l-1.6,8.9l-5.7-1.8l6.2-20.1C196.7,322.4,219.4,308.9,240.3,315.3z"/>
		<path class="st12" d="M212.1,392c-6.5-1.1-12.6,3.3-13.7,9.8c-0.1,0.4-0.1,0.8-0.1,1.2c-0.3,4.4,1.2,9.6,8.1,13.5
			c14.7,8.2,46.5,26.1,46.5,26.1l60.7,11.7c0,0,30.7,24.5,34.5,10.6c3.8-13.9-29.1-22.4-29.1-22.4L263.2,428l-35.5-25.7
			C227.7,402.3,221.2,393.6,212.1,392z"/>
		<polygon class="st12" points="192.7,449 198.8,466.2 235.4,457.3 226,444.6 		"/>
		<polygon class="st12" points="94.9,610.6 67.1,607.9 86.5,589 100.4,598.4 		"/>
		<circle class="st12" cx="233.9" cy="350" r="22.8"/>
		<path class="st12" d="M216,353.6c0,0-12.8,15-19.4,17.2c-6.7,2.2-23.3,23.3-15,37.2s38.8-3.3,38.8-3.3l-1.1-13.9
			c0,0,12.8-22.2,15.5-23.8C237.7,365.3,216,353.6,216,353.6z"/>
		<path class="st13" d="M213.8,380.4c-8.5-12.8-28.1-10.5-33,4c-0.1,0.3-0.2,0.5-0.2,0.8c-4.4,15,2.2,40.5,2.2,40.5l10,29.9
			c0,0,26.1-12.2,44.9,8.3l-2.8-21.1c0,0,7.8-17.7-2.2-30.5C226.3,404.3,220.4,390.3,213.8,380.4z"/>
		<path class="st7" d="M82.7,606.8l-1.1,8.3c0,0-36.6-7.2-44.4-0.6s-7.8,11.1-13.9,6.7c-2.6-1.9-0.4-6.5,3-11.1
			c5.4-7.3,12.5-13.2,20.6-17.1c9.2-4.5,21.8-11,21.8-12.8c0-2.8,10-11.1,13.9-6.7c3.9,4.4,11.1,16.6,11.1,16.6L82.7,606.8z"/>
		<path class="st7" d="M310.9,591c0,0-8.1,28.8-5.2,30.3c3,1.5,8.9,5.9,17.7,5.9c5.2,0,13.1,2.8,18.6,5.2c6.4,2.7,13.4,4,20.4,3.5
			c4.7-0.3,8.6-1.4,8.3-4.2c-0.7-6.7-14.8-8.1-14.8-8.1l-14.8-19.2c0,0-2.6-12.2-4.8-12.2c-1.2,0.1-2.4-0.3-3.3-1.1L310.9,591z"/>
		<path class="st7" d="M227.9,322.4c4.5-3.3,10.3-4.3,15.7-2.7l0.6,0.2c12.4,3.8,19,18.2,14.8,32v0l-4.2-1.3l0.9-5.3l-2.6,4.8
			l-24.7-7.6l-0.7-5l-0.8,4.5l-4.9-1.5c-5.7,10.6-5.9,22.8-0.6,36.8l-8.3-2.5l-1.5-9.9l-1.6,9l-15.8-4.9l3-20.9
			C201.9,333.2,214.5,323.2,227.9,322.4z"/>
		<rect x="329.8" y="187.5" class="st1" width="188.4" height="352.6"/>
		<path class="st0" d="M563.7,540.8H329.1V148.6h234.6V540.8z M330.5,539.3h231.7V150.1H330.5V539.3z"/>
		<rect x="54.5" y="634.5" class="st0" width="706.3" height="1.6"/>
		<path class="st0" d="M535.1,354.6H357.7V191.9h177.4V354.6z M359.1,353.1h174.5V193.3H359.1V353.1z"/>
		<polygon class="st0" points="358.9,311.5 357.9,310.4 413.2,255.1 445.6,287.6 533.5,199.8 534.5,200.8 445.6,289.7 413.2,257.2 
					"/>
		<circle class="st2" cx="413.4" cy="256.4" r="11"/>
		<circle class="st2" cx="446.4" cy="286.4" r="11"/>
		<circle class="st2" cx="534.3" cy="199.9" r="11"/>
		<rect x="379.7" y="400.1" class="st0" width="133.4" height="13.2"/>
		<polygon class="st0" points="477.2,508.6 415.6,508.6 415.6,447 457.4,447 457.4,448.4 417,448.4 417,507.1 475.7,507.1 
			475.7,477.8 477.2,477.8 		"/>
		<polygon class="st2" points="446,492.5 433,475.1 437.7,471.6 446.7,483.6 487.9,442.3 492.1,446.5 		"/>
		<path class="st7" d="M237.9,465.4c0,0-13.3-17.7-40.5-7.2l-5,13.9c0,0-28.8,22.7-12.8,57.7l-1.1,52.1l-4.4,15l-80.4-6.7L91,615.6
			l14.4,1.1c0,0,81.5,32.2,94.3,12.2c12.8-20,39.4-98.7,39.4-98.7l69,10.3c0,0-2,21.6,0.2,24.4c2.2,2.8,1.1,14.4,2.2,16.6
			s0.2,8,0.2,8l22.9-0.8v-11.1c0,0,2.8-15,2.8-18.9c0-3.9,16.6-54.9-12.2-59.3S245.7,487,245.7,487L237.9,465.4z"/>
		<path class="st12" d="M212,378.7c-2.8-7.1-10.8-10.5-17.8-7.8c-0.4,0.2-0.8,0.3-1.2,0.6c-4.6,2.3-8.8,6.9-8.6,16
			c0.6,19.4,1.7,61.6,1.7,61.6l24.4,67.1c0,0-6.1,44.9,10,40.5c16.1-4.4,5-42.1,5-42.1l-18.9-63.8l4.4-50.5
			C211,400.2,215.8,388.6,212,378.7z"/>
	</g>
</g>
</svg>
