<svg id="bebdbc02-5f56-4bd5-9ad9-bce5f07a2c3e" xmlns="http://www.w3.org/2000/svg" viewBox="0 0 783 783.89"><defs><style>.cls-1{fill:#515254;opacity:0;}.cls-2{fill:#3f3d56;}.cls-3{fill:#2f2e41;}.cls-4{fill:#fff;}.cls-5{fill:#4c65ff;}.cls-6{fill:#ffb9b9;}.cls-7{fill:#575a89;}.cls-8{fill:#f2f2f2;}</style></defs><title>Artboard 2 copy 2</title><rect class="cls-1" y="0.89" width="783" height="783"/><rect class="cls-2" x="83.34" y="287" width="16.02" height="20.82"/><rect class="cls-2" x="438.15" y="578.77" width="16.02" height="20.82"/><rect class="cls-2" x="675.93" y="364.51" width="20.82" height="16.02"/><circle class="cls-3" cx="643.14" cy="533.74" r="63.26"/><polygon class="cls-3" points="667.58 620.37 686.49 616.94 680.36 577.45 661.44 580.88 667.58 620.37"/><rect class="cls-3" x="626.54" y="585.74" width="19.22" height="34.43" transform="translate(-97.23 122.96) rotate(-10.26)"/><ellipse class="cls-3" cx="635.91" cy="624.15" rx="16.02" ry="6.01" transform="translate(-252.73 558.83) rotate(-40.26)"/><ellipse class="cls-3" cx="672.95" cy="623.06" rx="16.02" ry="6.01" transform="translate(-243.25 582.5) rotate(-40.26)"/><circle class="cls-4" cx="638.72" cy="518.26" r="21.62"/><circle class="cls-2" cx="629.83" cy="510.51" r="7.21"/><path class="cls-5" d="M693.05,464.92c1-23.42-19.24-43.26-45.09-44.31s-47.57,17.08-48.52,40.5,17,28.75,42.86,29.8S692.1,488.34,693.05,464.92Z"/><ellipse class="cls-3" cx="584.73" cy="522.21" rx="9.93" ry="31.63" transform="translate(-54.92 975.49) rotate(-77.09)"/><ellipse class="cls-3" cx="708.91" cy="542.86" rx="9.93" ry="31.63" transform="translate(21.38 1112.56) rotate(-77.09)"/><path class="cls-4" d="M660.52,558.67a14.42,14.42,0,0,1-28.37,5.13h0c-1.42-7.83,4.64-10.6,12.47-12S659.1,550.83,660.52,558.67Z"/><polygon class="cls-6" points="314.35 575.64 312.15 604.23 333.41 606.43 328.28 571.98 314.35 575.64"/><path class="cls-3" d="M240.28,315.28h0c18.12,5.59,27.79,26.42,21.59,46.53L254,387.36l-7.86-2.42-1.63-10.87-1.78,9.82-50.51-15.57-1.49-9.88-1.62,8.92-5.68-1.75,6.18-20.06C196.74,322.41,219.43,308.86,240.28,315.28Z"/><path class="cls-6" d="M212.14,392a11.9,11.9,0,0,0-13.69,9.79,11.43,11.43,0,0,0-.13,1.16c-.32,4.43,1.21,9.61,8.08,13.45,14.66,8.21,46.47,26.09,46.47,26.09l60.69,11.66s30.67,24.47,34.51,10.55S319,442.25,319,442.25L263.21,428l-35.52-25.69S221.18,393.57,212.14,392Z"/><polygon class="cls-6" points="192.74 448.99 198.84 466.18 235.44 457.31 226.01 444.56 192.74 448.99"/><polygon class="cls-6" points="94.86 610.64 67.14 607.87 86.55 589.01 100.41 598.44 94.86 610.64"/><circle class="cls-6" cx="233.87" cy="350.04" r="22.77"/><path class="cls-6" d="M216,353.61s-12.76,15-19.41,17.19-23.29,23.29-15,37.16,38.81-3.33,38.81-3.33l-1.1-13.86s12.75-22.18,15.52-23.85S216,353.61,216,353.61Z"/><path class="cls-7" d="M213.81,380.39c-8.48-12.77-28.14-10.49-33,4-.09.26-.17.52-.25.79-4.44,15,2.22,40.48,2.22,40.48l10,29.95s26.06-12.2,44.92,8.31l-2.78-21.07s7.77-17.74-2.22-30.5C226.31,404.28,220.41,390.32,213.81,380.39Z"/><path class="cls-3" d="M82.66,606.76l-1.11,8.31s-36.59-7.2-44.36-.55-7.76,11.09-13.86,6.65c-2.59-1.88-.38-6.47,3-11.13A56,56,0,0,1,47,592.9c9.15-4.48,21.79-11,21.79-12.76,0-2.77,10-11.09,13.86-6.66s11.09,16.64,11.09,16.64Z"/><path class="cls-3" d="M310.93,591s-8.13,28.82-5.17,30.29,8.86,5.91,17.73,5.91c5.24,0,13.06,2.84,18.58,5.16a44.8,44.8,0,0,0,20.41,3.52c4.66-.32,8.62-1.42,8.3-4.24C370,625,356,623.55,356,623.55l-14.78-19.21s-2.58-12.19-4.8-12.19A4.88,4.88,0,0,1,333.1,591Z"/><path class="cls-3" d="M227.86,322.44a18,18,0,0,1,15.71-2.75l.65.2c12.42,3.83,19,18.17,14.75,32h0l-4.16-1.29.9-5.32-2.56,4.81-24.68-7.6-.73-5-.82,4.49-4.86-1.5q-8.59,15.84-.63,36.77l-8.28-2.55-1.46-9.93-1.64,9L194.28,369l3-20.87C201.91,333.18,214.47,323.21,227.86,322.44Z"/><rect class="cls-8" x="329.81" y="187.47" width="188.4" height="352.62"/><path class="cls-2" d="M563.66,540.81H329.07V148.61H563.66Zm-233.12-1.46H562.19V150.08H330.54Z"/><rect class="cls-2" x="54.47" y="634.53" width="706.34" height="1.64"/><path class="cls-2" d="M535.07,354.61H357.66V191.86H535.07Zm-175.94-1.47H533.6V193.33H359.13Z"/><polygon class="cls-2" points="358.92 311.46 357.88 310.42 413.17 255.13 445.63 287.6 533.45 199.78 534.49 200.81 445.63 289.67 413.17 257.2 358.92 311.46"/><circle class="cls-5" cx="413.38" cy="256.38" r="11"/><circle class="cls-5" cx="446.37" cy="286.43" r="11"/><circle class="cls-5" cx="534.34" cy="199.93" r="11"/><rect class="cls-2" x="379.66" y="400.06" width="133.42" height="13.2"/><polygon class="cls-2" points="477.16 508.56 415.58 508.56 415.58 446.98 457.36 446.98 457.36 448.44 417.04 448.44 417.04 507.09 475.69 507.09 475.69 477.77 477.16 477.77 477.16 508.56"/><polygon class="cls-5" points="446.05 492.5 433.02 475.13 437.72 471.61 446.68 483.57 487.91 442.34 492.06 446.49 446.05 492.5"/><path class="cls-3" d="M237.93,465.35s-13.31-17.74-40.48-7.21l-5,13.87s-28.83,22.73-12.75,57.67L178.6,581.8l-4.44,15-80.41-6.65L91,615.63l14.42,1.11s81.52,32.16,94.27,12.2S239,530.23,239,530.23l69,10.34s-2,21.61.19,24.38,1.11,14.42,2.22,16.64.19,8,.19,8l22.9-.76V577.72s2.78-15,2.78-18.85S353,504,324.17,499.53,245.7,487,245.7,487Z"/><path class="cls-6" d="M212,378.67a13.75,13.75,0,0,0-17.82-7.77c-.41.16-.82.35-1.22.55-4.58,2.31-8.82,6.9-8.56,16,.55,19.41,1.66,61.55,1.66,61.55l24.4,67.1s-6.1,44.92,10,40.48,5-42.14,5-42.14L206.6,450.66,211,400.19S215.8,388.59,212,378.67Z"/></svg>